<svg xmlns="http://www.w3.org/2000/svg" xmlns:xlink="http://www.w3.org/1999/xlink" id="Layer_1" x="0" y="0" version="1.1" viewBox="0 0 60 60" xml:space="preserve" style="enable-background:new 0 0 60 60"><style type="text/css">.st0{fill:none;stroke:#22adf6;stroke-width:2;stroke-linecap:round;stroke-linejoin:round;stroke-miterlimit:10}</style><path d="M30,9v19 M44,30H32 M28,30h-2 M32,30c0-1.1-0.9-2-2-2s-2,0.9-2,2s0.9,2,2,2S32,31.1,32,30z M30,34v-2 M30,51v-3 M48,30h3 M9,30h3 M55,59c2.2,0,4-1.8,4-4V5c0-2.2-1.8-4-4-4H5C2.8,1,1,2.8,1,5v50c0,2.2,1.8,4,4,4h45.05 M55,30	C55,16.2,43.8,5,30,5S5,16.2,5,30s11.2,25,25,25S55,43.8,55,30z" class="st0"/></svg>