<svg xmlns="http://www.w3.org/2000/svg" xmlns:xlink="http://www.w3.org/1999/xlink" id="Layer_1" x="0" y="0" version="1.1" viewBox="0 0 110 53" xml:space="preserve" style="enable-background:new 0 0 110 53"><style type="text/css">.st0{fill:#fff}</style><g><path id="XMLID_25_" d="M22,17.7c3.4,0,5.7,0.6,6.9,1.9c1.1,1.3,1.4,3.4,0.8,6.5c-0.6,3.2-1.8,5.5-3.6,7 c-1.8,1.4-4.5,2.1-8.1,2.1h-5.5l3.4-17.5H22L22,17.7z M0,53h9l2.1-11.1h7.7c3.4,0,6.2-0.4,8.4-1.1c2.2-0.7,4.2-1.9,6-3.6 c1.5-1.4,2.7-2.9,3.7-4.6c0.9-1.7,1.6-3.5,2-5.6c1-4.9,0.2-8.8-2.2-11.6c-2.4-2.7-6.2-4.1-11.4-4.1H8.1L0,53" class="st0"/><path id="XMLID_26_" d="M45.8,0h9l-2.1,11.1h8c5,0,8.5,0.9,10.4,2.6c1.9,1.8,2.5,4.6,1.7,8.6L69,41.7h-9.1l3.6-18.5 c0.4-2.1,0.3-3.5-0.4-4.3c-0.7-0.8-2.2-1.1-4.5-1.1h-7.2l-4.6,24h-9L45.8,0" class="st0"/><path id="XMLID_29_" d="M92.8,17.7c3.4,0,5.7,0.6,6.9,1.9c1.1,1.3,1.4,3.4,0.8,6.5c-0.6,3.2-1.8,5.5-3.6,7 c-1.8,1.4-4.5,2.1-8.1,2.1h-5.6l3.4-17.5H92.8L92.8,17.7z M70.6,53h9l2.1-11.1h7.7c3.4,0,6.2-0.4,8.4-1.1c2.2-0.7,4.2-1.9,6-3.6 c1.5-1.4,2.7-2.9,3.7-4.6c0.9-1.7,1.6-3.5,2-5.6c1-4.9,0.2-8.8-2.2-11.6c-2.4-2.7-6.2-4.1-11.4-4.1H78.7L70.6,53" class="st0"/></g></svg>