<svg xmlns="http://www.w3.org/2000/svg" xmlns:xlink="http://www.w3.org/1999/xlink" id="Layer_1" x="0" y="0" version="1.1" viewBox="0 0 70 70" xml:space="preserve" style="enable-background:new 0 0 70 70"><style type="text/css">.st0{fill:url(#SVGID_1_)}.st1{fill:url(#SVGID_2_)}.st2{fill:url(#SVGID_3_)}.st3{fill:url(#SVGID_4_)}.st4{fill:url(#SVGID_5_)}.st5{fill:url(#SVGID_6_)}.st6{fill:url(#SVGID_7_)}.st7{fill:url(#SVGID_8_)}.st8{fill:#fff}.st9{fill:url(#SVGID_9_)}.st10{fill:url(#SVGID_10_)}.st11{fill:url(#SVGID_11_)}.st12{fill:url(#SVGID_12_)}.st13{fill:#9e1209}.st14{fill:url(#SVGID_13_)}.st15{fill:url(#SVGID_14_)}.st16{fill:url(#SVGID_15_)}.st17{fill:url(#SVGID_16_)}</style><g><linearGradient id="SVGID_1_" x1="-38.765" x2="-38.836" y1="-40.691" y2="-40.816" gradientTransform="matrix(202.9347 0 0 202.7803 7927.3994 8326.3857)" gradientUnits="userSpaceOnUse"><stop offset="0" style="stop-color:#fb7655"/><stop offset="0" style="stop-color:#fb7655"/><stop offset=".41" style="stop-color:#e42b1e"/><stop offset=".99" style="stop-color:#900"/><stop offset="1" style="stop-color:#900"/></linearGradient><path d="M53.6,45.9L14.9,69l50.2-3.4L69,14.8L53.6,45.9z" class="st0"/><linearGradient id="SVGID_2_" x1="-40.22" x2="-40.526" y1="-41.328" y2="-41.439" gradientTransform="matrix(60.3079 0 0 111.7781 2493.3774 4673.3799)" gradientUnits="userSpaceOnUse"><stop offset="0" style="stop-color:#871101"/><stop offset="0" style="stop-color:#871101"/><stop offset=".99" style="stop-color:#911209"/><stop offset="1" style="stop-color:#911209"/></linearGradient><path d="M65.1,65.5l-4.3-29.8L49,51.2L65.1,65.5z" class="st1"/><linearGradient id="SVGID_3_" x1="-38.79" x2="-38.889" y1="-46.326" y2="-46.891" gradientTransform="matrix(188.3195 0 0 21.9864 7358.0371 1094.3868)" gradientUnits="userSpaceOnUse"><stop offset="0" style="stop-color:#871101"/><stop offset="0" style="stop-color:#871101"/><stop offset=".99" style="stop-color:#911209"/><stop offset="1" style="stop-color:#911209"/></linearGradient><path d="M65.2,65.5L33.6,63L15,68.8L65.2,65.5z" class="st2"/><linearGradient id="SVGID_4_" x1="-38.446" x2="-38.402" y1="-41.753" y2="-41.561" gradientTransform="matrix(65.2221 0 0 97.0999 2521.8228 4098.9507)" gradientUnits="userSpaceOnUse"><stop offset="0" style="stop-color:#fff"/><stop offset="0" style="stop-color:#fff"/><stop offset=".23" style="stop-color:#e57252"/><stop offset=".46" style="stop-color:#de3b20"/><stop offset=".99" style="stop-color:#a60003"/><stop offset="1" style="stop-color:#a60003"/></linearGradient><path d="M15.1,68.8L23,42.9L5.6,46.6L15.1,68.8z" class="st3"/><linearGradient id="SVGID_5_" x1="-39.02" x2="-39.01" y1="-41.139" y2="-40.961" gradientTransform="matrix(105.3202 0 0 106.8253 4143.5254 4422.0674)" gradientUnits="userSpaceOnUse"><stop offset="0" style="stop-color:#fff"/><stop offset="0" style="stop-color:#fff"/><stop offset=".23" style="stop-color:#e4714e"/><stop offset=".56" style="stop-color:#be1a0d"/><stop offset=".99" style="stop-color:#a80d00"/><stop offset="1" style="stop-color:#a80d00"/></linearGradient><path d="M49,51.3l-7.3-28.5L21,42.3L49,51.3z" class="st4"/><linearGradient id="SVGID_6_" x1="-39.678" x2="-39.645" y1="-40.604" y2="-40.399" gradientTransform="matrix(94.3212 0 0 66.4185 3793.8984 2706.6316)" gradientUnits="userSpaceOnUse"><stop offset="0" style="stop-color:#fff"/><stop offset="0" style="stop-color:#fff"/><stop offset=".18" style="stop-color:#e46342"/><stop offset=".4" style="stop-color:#c82410"/><stop offset=".99" style="stop-color:#a80d00"/><stop offset="1" style="stop-color:#a80d00"/></linearGradient><path d="M67.2,23.1L47.6,7l-5.5,17.7L67.2,23.1z" class="st5"/><linearGradient id="SVGID_7_" x1="-39.885" x2="-39.693" y1="-39.218" y2="-39.499" gradientTransform="matrix(70.7666 0 0 24.3007 2864.3218 957.9983)" gradientUnits="userSpaceOnUse"><stop offset="0" style="stop-color:#fff"/><stop offset="0" style="stop-color:#fff"/><stop offset=".54" style="stop-color:#c81f11"/><stop offset=".99" style="stop-color:#bf0905"/><stop offset="1" style="stop-color:#bf0905"/></linearGradient><path d="M58,1.3L46.4,7.7l-7.3-6.5L58,1.3z" class="st6"/><linearGradient id="SVGID_8_" x1="-36.727" x2="-36.666" y1="-41.711" y2="-41.556" gradientTransform="matrix(18.1773 0 0 72.6448 669.9147 3070.168)" gradientUnits="userSpaceOnUse"><stop offset="0" style="stop-color:#fff"/><stop offset="0" style="stop-color:#fff"/><stop offset=".31" style="stop-color:#de4024"/><stop offset=".99" style="stop-color:#bf190b"/><stop offset="1" style="stop-color:#bf190b"/></linearGradient><path d="M1,55.4l4.8-8.8L1.9,36L1,55.4z" class="st7"/><path d="M1.7,35.6l3.9,11.2L22.8,43l19.6-18.2l5.5-17.6L39.1,1L24.4,6.5c-4.7,4.3-13.7,12.9-14,13.1 C10,19.8,4.4,30.4,1.7,35.6L1.7,35.6z" class="st8"/><linearGradient id="SVGID_9_" x1="-38.843" x2="-38.51" y1="-40.45" y2="-40.793" gradientTransform="matrix(158.1624 0 0 157.9374 6138.1504 6442.8379)" gradientUnits="userSpaceOnUse"><stop offset="0" style="stop-color:#bd0012"/><stop offset="0" style="stop-color:#bd0012"/><stop offset=".07" style="stop-color:#fff"/><stop offset=".17" style="stop-color:#fff"/><stop offset=".27" style="stop-color:#c82f1c"/><stop offset=".33" style="stop-color:#820c01"/><stop offset=".46" style="stop-color:#a31601"/><stop offset=".72" style="stop-color:#b31301"/><stop offset=".99" style="stop-color:#e82609"/><stop offset="1" style="stop-color:#e82609"/></linearGradient><path d="M15.5,15.4C25.6,5.4,38.5-0.5,43.5,4.5s-0.3,17.3-10.4,27.3s-23,16.3-28,11.2C0.3,38.1,5.4,25.4,15.5,15.4 L15.5,15.4z" class="st9"/><linearGradient id="SVGID_10_" x1="-38.833" x2="-38.958" y1="-41.593" y2="-41.633" gradientTransform="matrix(127.0738 0 0 97.4086 4969.6221 4111.2671)" gradientUnits="userSpaceOnUse"><stop offset="0" style="stop-color:#8c0c01"/><stop offset="0" style="stop-color:#8c0c01"/><stop offset=".54" style="stop-color:#990c00"/><stop offset=".99" style="stop-color:#a80d0e"/><stop offset="1" style="stop-color:#a80d0e"/></linearGradient><path d="M15.1,68.8l7.8-26l26.1,8.4C39.5,60.1,29.1,67.5,15.1,68.8L15.1,68.8z" class="st10"/><linearGradient id="SVGID_11_" x1="-39.573" x2="-39.723" y1="-41.026" y2="-41.145" gradientTransform="matrix(94.0112 0 0 105.6032 3782.5291 4373.0654)" gradientUnits="userSpaceOnUse"><stop offset="0" style="stop-color:#7e110b"/><stop offset="0" style="stop-color:#7e110b"/><stop offset=".99" style="stop-color:#9e0c00"/><stop offset="1" style="stop-color:#9e0c00"/></linearGradient><path d="M42.3,24.6L49,51.2c7.9-8.3,14.9-17.2,18.4-28.2L42.3,24.6L42.3,24.6z" class="st11"/><linearGradient id="SVGID_12_" x1="-39.862" x2="-39.95" y1="-40.322" y2="-40.414" gradientTransform="matrix(79.7018 0 0 81.7914 3244.4265 3315.4834)" gradientUnits="userSpaceOnUse"><stop offset="0" style="stop-color:#79130d"/><stop offset="0" style="stop-color:#79130d"/><stop offset=".99" style="stop-color:#9e120b"/><stop offset="1" style="stop-color:#9e120b"/></linearGradient><path d="M67.3,23.1C70,15,70.6,3.4,58,1.3L47.6,7L67.3,23.1L67.3,23.1z" class="st12"/><path d="M1,55.2c0.4,13.3,10,13.5,14.1,13.6L5.6,46.7L1,55.2L1,55.2z" class="st13"/><radialGradient id="SVGID_13_" cx="-39.708" cy="-41.314" r=".186" gradientTransform="matrix(92.8398 0 0 48.6553 3736.7473 2038.4287)" gradientUnits="userSpaceOnUse"><stop offset="0" style="stop-color:#a80d00"/><stop offset="0" style="stop-color:#a80d00"/><stop offset=".99" style="stop-color:#7e0e08"/><stop offset="1" style="stop-color:#7e0e08"/></radialGradient><path d="M42.3,24.7c6,3.7,18.2,11.2,18.5,11.3c0.4,0.2,5.3-8.2,6.4-13L42.3,24.7L42.3,24.7z" class="st14"/><radialGradient id="SVGID_14_" cx="-39.172" cy="-41.876" r=".236" gradientTransform="matrix(97.1482 0 0 75.848 3831.8708 3227.2805)" gradientUnits="userSpaceOnUse"><stop offset="0" style="stop-color:#a30c00"/><stop offset="0" style="stop-color:#a30c00"/><stop offset=".99" style="stop-color:#800e08"/><stop offset="1" style="stop-color:#800e08"/></radialGradient><path d="M22.9,42.8L33.4,63c6.2-3.4,11.1-7.5,15.5-11.9L22.9,42.8L22.9,42.8z" class="st15"/><linearGradient id="SVGID_15_" x1="-38.065" x2="-38.208" y1="-41.783" y2="-42.022" gradientTransform="matrix(40.1367 0 0 81.143 1537.9349 3459.1902)" gradientUnits="userSpaceOnUse"><stop offset="0" style="stop-color:#8b2114"/><stop offset="0" style="stop-color:#8b2114"/><stop offset=".43" style="stop-color:#9e100a"/><stop offset=".99" style="stop-color:#b3100c"/><stop offset="1" style="stop-color:#b3100c"/></linearGradient><path d="M5.6,46.8L4.1,64.5c2.8,3.8,6.7,4.2,10.7,3.9C11.9,61.1,6,46.5,5.6,46.8L5.6,46.8z" class="st16"/><linearGradient id="SVGID_16_" x1="-40.047" x2="-39.883" y1="-39.702" y2="-39.528" gradientTransform="matrix(78.0993 0 0 32.6239 3181.6987 1299.5735)" gradientUnits="userSpaceOnUse"><stop offset="0" style="stop-color:#b31000"/><stop offset="0" style="stop-color:#b31000"/><stop offset=".44" style="stop-color:#910f08"/><stop offset=".99" style="stop-color:#791c12"/><stop offset="1" style="stop-color:#791c12"/></linearGradient><path d="M47.5,7l20.8,2.9C67.2,5.2,63.8,2.1,58,1.2L47.5,7L47.5,7z" class="st17"/></g></svg>