<svg xmlns="http://www.w3.org/2000/svg" xmlns:xlink="http://www.w3.org/1999/xlink" id="Layer_1" x="0" y="0" version="1.1" viewBox="0 0 54 88" xml:space="preserve" style="enable-background:new 0 0 54 88"><style type="text/css">.st0{fill:url(#XMLID_8_)}.st1{fill:url(#XMLID_9_)}.st2{fill:url(#XMLID_10_)}.st3{fill:url(#XMLID_11_)}.st4{fill:url(#XMLID_12_)}</style><g id="XMLID_1_"><linearGradient id="XMLID_8_" x1="-222.129" x2="-221.918" y1="293.912" y2="293.912" gradientTransform="matrix(256 0 0 96 56865 -28158)" gradientUnits="userSpaceOnUse"><stop offset="0" style="stop-color:#4f4f4f"/><stop offset="1" style="stop-color:#000"/></linearGradient><path id="XMLID_3_" d="M0,54.1v6.8c0,1.1,24.5,3,40.5,6.7c7.7-1.8,13.5-4,13.5-6.7v-6.8c0-2.7-5.7-5-13.5-6.7 C24.5,51.1,0,53,0,54.1" class="st0"/><linearGradient id="XMLID_9_" x1="-222.129" x2="-221.918" y1="294.963" y2="294.963" gradientTransform="matrix(256 0 0 96 56865 -28286)" gradientUnits="userSpaceOnUse"><stop offset="0" style="stop-color:#4f4f4f"/><stop offset="1" style="stop-color:#000"/></linearGradient><path id="XMLID_4_" d="M0,27.1v6.7c0,1.1,24.5,3,40.5,6.7c7.7-1.8,13.5-4,13.5-6.7v-6.7c0-2.7-5.7-5-13.5-6.7 C24.5,24.1,0,26,0,27.1" class="st1"/><linearGradient id="XMLID_10_" x1="-222.129" x2="-221.918" y1="294.262" y2="294.262" gradientTransform="matrix(256 0 0 160 56865 -47038)" gradientUnits="userSpaceOnUse"><stop offset="0" style="stop-color:#c40000"/><stop offset="1" style="stop-color:red"/></linearGradient><path id="XMLID_5_" d="M0,40.6v20.3c0-1.7,54-5.1,54-13.5V27.1C54,35.6,0,38.9,0,40.6" class="st2"/><linearGradient id="XMLID_11_" x1="-222.129" x2="-221.918" y1="294.893" y2="294.893" gradientTransform="matrix(256 0 0 160 56865 -47166)" gradientUnits="userSpaceOnUse"><stop offset="0" style="stop-color:#c40000"/><stop offset="1" style="stop-color:red"/></linearGradient><path id="XMLID_6_" d="M0,13.5v20.3c0-1.7,54-5.1,54-13.5V0C54,8.5,0,11.8,0,13.5" class="st3"/><linearGradient id="XMLID_12_" x1="-222.129" x2="-221.918" y1="293.632" y2="293.632" gradientTransform="matrix(256 0 0 160 56865 -46910)" gradientUnits="userSpaceOnUse"><stop offset="0" style="stop-color:#c40000"/><stop offset="1" style="stop-color:red"/></linearGradient><path id="XMLID_7_" d="M0,67.7V88c0-1.7,54-5.1,54-13.5V54.1C54,62.6,0,65.9,0,67.7" class="st4"/></g></svg>