<svg xmlns="http://www.w3.org/2000/svg" xmlns:xlink="http://www.w3.org/1999/xlink" id="Layer_1" x="0" y="0" version="1.1" viewBox="0 0 56.34 56.21" xml:space="preserve" style="enable-background:new 0 0 56.34 56.21"><style type="text/css">.st0{display:none}.st1{display:inline}.st2{stroke:url(#SVGID_1_)}.st2,.st3,.st4{display:inline;fill:none;stroke-width:2;stroke-linecap:round;stroke-linejoin:round;stroke-miterlimit:10}.st3{stroke:url(#SVGID_2_)}.st4{stroke:url(#SVGID_3_)}.st5{fill:#22adf6}</style><g class="st0"><circle cx="7.53" cy="5.64" r="2.08" class="st1"/><circle cx="13.15" cy="5.64" r="2.08" class="st1"/><circle cx="18.78" cy="5.64" r="2.08" class="st1"/><linearGradient id="SVGID_1_" x1="1.496" x2="54.844" y1="54.78" y2="1.433" gradientUnits="userSpaceOnUse"><stop offset="0" style="stop-color:#bf2fe5"/><stop offset="1" style="stop-color:#22adf6;stop-opacity:.984"/></linearGradient><path d="M1,10.4V5c0-2.21,1.79-4,4-4h46.34c2.21,0,4,1.79,4,4v46.21c0,2.21-1.79,4-4,4H5c-2.21,0-4-1.79-4-4V13.69" class="st2"/><linearGradient id="SVGID_2_" x1="12.998" x2="39.824" y1="23.817" y2="-3.008" gradientUnits="userSpaceOnUse"><stop offset="0" style="stop-color:#bf2fe5"/><stop offset="1" style="stop-color:#22adf6;stop-opacity:.984"/></linearGradient><line x1="51.82" x2="1" y1="10.4" y2="10.4" class="st3"/><linearGradient id="SVGID_3_" x1="18.258" x2="38.04" y1="47.548" y2="27.766" gradientUnits="userSpaceOnUse"><stop offset="0" style="stop-color:#bf2fe5"/><stop offset="1" style="stop-color:#22adf6;stop-opacity:.984"/></linearGradient><path d="M33.54,30.29h2.94c0.98,0,1.96,0.98,1.96,1.96V45c0,0.98-0.98,1.96-1.96,1.96H19.82 c-0.98,0-1.96-0.98-1.96-1.96v-0.98 M29.62,36.67c0-0.83-0.64-1.47-1.47-1.47c-0.83,0-1.47,0.64-1.47,1.47 c0,0.83,0.64,1.47,1.47,1.47C28.98,38.14,29.62,37.5,29.62,36.67z M28.15,40.1v-1.96 M33.54,30.29v-3.37c0-2.99-2.4-5.39-5.39-5.39 s-5.39,2.4-5.39,5.39v3.37h-2.94c-0.98,0-1.96,0.98-1.96,1.96v11.76 M25.62,30.29h5.06v-2.32c0-0.49-0.09-1.83-0.31-2.27 c-0.32-0.65-0.96-1.3-2.22-1.3c-1.26,0-1.9,0.65-2.22,1.3c-0.22,0.44-0.31,1.78-0.31,2.28L25.62,30.29h5.06" class="st4"/></g><path d="M9.62,5.64c0,1.15-0.93,2.08-2.08,2.08S5.45,6.79,5.45,5.64s0.93-2.08,2.08-2.08S9.62,4.49,9.62,5.64z M13.15,3.56c-1.15,0-2.08,0.93-2.08,2.08S12,7.72,13.15,7.72s2.08-0.93,2.08-2.08S14.3,3.56,13.15,3.56z M18.78,3.56	c-1.15,0-2.08,0.93-2.08,2.08s0.93,2.08,2.08,2.08s2.08-0.93,2.08-2.08S19.93,3.56,18.78,3.56z M51.34,0H5C2.24,0,0,2.24,0,5v5.4	c0,0.55,0.45,1,1,1h50.82c0.55,0,1-0.45,1-1s-0.45-1-1-1H2V5c0-1.65,1.35-3,3-3h46.34c1.65,0,3,1.35,3,3v46.21c0,1.65-1.35,3-3,3H5	c-1.65,0-3-1.35-3-3V13.69c0-0.55-0.45-1-1-1s-1,0.45-1,1v37.52c0,2.76,2.24,5,5,5h46.34c2.76,0,5-2.24,5-5V5	C56.34,2.24,54.1,0,51.34,0z M30.15,37.83c0,0.74-0.4,1.38-1,1.72v2.28c0,0.55-0.45,1-1,1s-1-0.45-1-1v-2.28	c-0.6-0.35-1-0.99-1-1.72c0-1.1,0.9-2,2-2S30.15,36.73,30.15,37.83L30.15,37.83z M38.15,43.83c0,1.65-1.35,3-3,3h-14	c-1.65,0-3-1.35-3-3v-10c0-1.65,1.35-3,3-3h14c1.65,0,3,1.35,3,3V43.83z M24.15,24.83c0-2.21,1.79-4,4-4s4,1.79,4,4v4h-8V24.83z M35.15,28.83h-1v-4c0-3.31-2.69-6-6-6s-6,2.69-6,6v4h-1c-2.76,0-5,2.24-5,5v10c0,2.76,2.24,5,5,5h14c2.76,0,5-2.24,5-5v-10	C40.15,31.07,37.91,28.83,35.15,28.83L35.15,28.83z" class="st5"/></svg>