<svg xmlns="http://www.w3.org/2000/svg" xmlns:xlink="http://www.w3.org/1999/xlink" id="Layer_1" x="0" y="0" version="1.1" viewBox="0 0 140 140" xml:space="preserve" style="enable-background:new 0 0 140 140"><style type="text/css">.st0{fill:url(#SVGID_1_)}</style><linearGradient id="SVGID_1_" x1="63.166" x2="107.666" y1="62.628" y2="110.628" gradientUnits="userSpaceOnUse"><stop offset="0" style="stop-color:#22adf6"/><stop offset="1" style="stop-color:#9394ff"/></linearGradient><path d="M136.7,90.2c0-0.1,0-0.2,0-0.3l-15.5-67c0-0.1-0.1-0.2-0.1-0.3c0,0,0,0,0-0.1c-0.1-0.1-0.2-0.2-0.3-0.2	c0,0,0,0,0,0c0,0,0,0,0,0c-0.1,0-0.2-0.1-0.2-0.1L54.8,2c-0.1,0-0.2,0-0.3,0c0,0,0,0,0,0c0,0,0,0,0,0c-0.1,0-0.2,0-0.4,0.1	c0,0,0,0,0,0c-0.1,0-0.2,0.1-0.3,0.2L3.6,49.2c-0.1,0.1-0.2,0.2-0.2,0.3c0,0,0,0,0,0.1c0,0.1-0.1,0.2-0.1,0.3c0,0,0,0,0,0	c0,0,0,0,0,0c0,0.1,0,0.2,0,0.3l15.5,67c0,0.1,0.1,0.2,0.1,0.2c0,0,0,0,0,0c0.1,0.1,0.1,0.2,0.2,0.3c0,0,0,0,0.1,0.1	c0.1,0.1,0.2,0.1,0.3,0.2L85.2,138c0.1,0,0.2,0,0.3,0c0.1,0,0.2,0,0.3-0.1c0,0,0.1,0,0.1,0c0.1,0,0.1-0.1,0.2-0.1c0,0,0,0,0,0	l50.3-46.9c0.1-0.1,0.1-0.1,0.2-0.2c0,0,0,0,0,0c0,0,0,0,0,0C136.7,90.5,136.7,90.4,136.7,90.2C136.7,90.3,136.7,90.3,136.7,90.2z M21,116.2l11-36.1l63.8,19.5l-11,36.1L21,116.2z M6.1,53.3l24.1,25.9L19.8,113L6.1,53.3z M95.7,97.6L33.3,78.5L81,33.9l10.7,46.5	L95.7,97.6z M31.4,77.5L5.7,49.9L54.5,4.4L80.2,32L31.4,77.5z M97.8,97.8l-15-65.1l36.7-8.5l15,65.1L97.8,97.8z M81.9,30.9L57.8,5	L116.4,23L81.9,30.9z M97.9,99.9l34.5-8l-44.8,41.8L97.9,99.9z" class="st0"/></svg>