<svg xmlns="http://www.w3.org/2000/svg" xmlns:xlink="http://www.w3.org/1999/xlink" id="Layer_1" x="0" y="0" version="1.1" viewBox="0 0 820 470" xml:space="preserve" style="enable-background:new 0 0 820 470"><style type="text/css">.st0{opacity:.14;fill:url(#SVGID_1_)}.st1{opacity:.63}.st2{fill:url(#SVGID_2_)}.st3{fill:url(#SVGID_3_)}.st4{opacity:.6}.st5{fill:url(#SVGID_4_)}.st6{fill:url(#SVGID_5_)}.st7{opacity:.21}.st8{fill:url(#SVGID_6_)}.st9{opacity:.17}.st10{fill:url(#SVGID_7_)}.st11{fill:url(#SVGID_8_)}.st12{opacity:.65;fill:url(#SVGID_9_)}.st13{opacity:.34;fill:url(#SVGID_10_)}.st14{opacity:.65;fill:url(#SVGID_11_)}.st15{opacity:.7}.st16{fill:url(#SVGID_12_)}.st17{opacity:.18}.st18{fill:url(#SVGID_13_)}.st19{fill:url(#SVGID_14_)}.st20{opacity:.34;fill:url(#SVGID_15_)}.st21{fill:url(#SVGID_16_)}.st22{fill:url(#SVGID_17_)}.st23{fill:url(#SVGID_18_)}.st24{fill:url(#SVGID_19_)}.st25{fill:url(#SVGID_20_)}.st26{fill:url(#SVGID_21_)}.st27{fill:url(#SVGID_22_)}.st28{fill:url(#SVGID_23_)}.st29{fill:#fff}.st30{fill:url(#SVGID_24_)}.st31{opacity:.1}.st31,.st32,.st33{fill:#31a1f4}.st33{opacity:.5}.st34{opacity:.65;fill:url(#SVGID_25_)}.st35{fill:url(#SVGID_26_)}.st36{opacity:.65;fill:url(#SVGID_27_)}.st37{fill:url(#SVGID_28_)}</style><linearGradient id="SVGID_1_" x1="459.668" x2="744.518" y1="269.105" y2="234.462" gradientUnits="userSpaceOnUse"><stop offset="0" style="stop-color:#22adf6"/><stop offset=".308" style="stop-color:#5c7ff0"/><stop offset=".628" style="stop-color:#9154ea"/><stop offset=".869" style="stop-color:#b239e6"/><stop offset="1" style="stop-color:#bf2fe5"/></linearGradient><path d="M481.5,247.3l96.1-55.5c5.5-3.2,12.3-3.2,17.7,0l96.1,55.5c4.9,2.8,4.9,9.9,0,12.7l-96.1,55.5	c-5.5,3.2-12.3,3.2-17.7,0L481.5,260C476.7,257.2,476.7,250.2,481.5,247.3z" class="st0"/><g class="st1"><linearGradient id="SVGID_2_" x1="680.818" x2="695.438" y1="253.67" y2="251.892" gradientUnits="userSpaceOnUse"><stop offset="0" style="stop-color:#22adf6"/><stop offset=".308" style="stop-color:#5c7ff0"/><stop offset=".628" style="stop-color:#9154ea"/><stop offset=".869" style="stop-color:#b239e6"/><stop offset="1" style="stop-color:#bf2fe5"/></linearGradient><path d="M682.7,265.6c-0.2,0-0.4-0.1-0.5-0.3c-0.1-0.2-0.1-0.6,0.2-0.7l8.7-5c2.1-1.2,3.4-3.4,3.4-5.9 c0-2.5-1.3-4.7-3.4-5.9l-9.4-5.4c-0.3-0.1-0.3-0.5-0.2-0.7c0.1-0.3,0.5-0.3,0.7-0.2l9.4,5.4c2.5,1.4,3.9,4,3.9,6.8 c0,2.8-1.5,5.4-3.9,6.8l-8.7,5C682.9,265.5,682.8,265.6,682.7,265.6z" class="st2"/></g><g class="st1"><linearGradient id="SVGID_3_" x1="477.497" x2="491.991" y1="255.351" y2="253.588" gradientUnits="userSpaceOnUse"><stop offset="0" style="stop-color:#22adf6"/><stop offset=".308" style="stop-color:#5c7ff0"/><stop offset=".628" style="stop-color:#9154ea"/><stop offset=".869" style="stop-color:#b239e6"/><stop offset="1" style="stop-color:#bf2fe5"/></linearGradient><path d="M490.5,265.7c-0.1,0-0.2,0-0.3-0.1l-8.9-5.2c-2.5-1.4-3.9-4-3.9-6.8c0-2.8,1.5-5.4,3.9-6.8l8.6-4.9 c0.2-0.1,0.6-0.1,0.7,0.2c0.1,0.2,0.1,0.6-0.2,0.7l-8.6,4.9c-2.1,1.2-3.4,3.4-3.4,5.9c0,2.5,1.3,4.7,3.4,5.9l8.9,5.2 c0.3,0.1,0.3,0.5,0.2,0.7C490.8,265.6,490.7,265.7,490.5,265.7z" class="st3"/></g><g class="st4"><linearGradient id="SVGID_4_" x1="304.597" x2="363.055" y1="455.19" y2="353.938" gradientUnits="userSpaceOnUse"><stop offset="0" style="stop-color:#383846;stop-opacity:0"/><stop offset="1" style="stop-color:#383846"/></linearGradient><path d="M439,397.8l-96.1-55.5c-5.6-3.2-12.6-3.2-18.2,0l-96.1,55.5c-2.5,1.4-3.9,3.9-3.9,6.8c0,2.8,1.5,5.4,3.9,6.8 l84.3,48.7h2l-85.8-49.5c-2.1-1.2-3.4-3.4-3.4-5.9c0-2.5,1.3-4.7,3.4-5.9l96.1-55.5c5.3-3.1,11.9-3.1,17.2,0l96.1,55.5 c2.1,1.2,3.4,3.4,3.4,5.9c0,2.5-1.3,4.7-3.4,5.9L352.7,460h2l84.3-48.7c2.5-1.4,3.9-3.9,3.9-6.8C442.9,401.7,441.5,399.2,439,397.8 z" class="st5"/></g><g class="st4"><linearGradient id="SVGID_5_" x1="174.49" x2="232.946" y1="379.053" y2="277.805" gradientUnits="userSpaceOnUse"><stop offset="0" style="stop-color:#383846;stop-opacity:0"/><stop offset="1" style="stop-color:#383846"/></linearGradient><path d="M203.7,393.1c-3.2,0-6.3-0.8-9.1-2.4l-96.1-55.5c-2.4-1.4-3.9-3.9-3.9-6.8c0-2.8,1.5-5.4,3.9-6.8l96.1-55.5 c5.6-3.2,12.6-3.2,18.2,0l96.1,55.5c2.4,1.4,3.9,3.9,3.9,6.8c0,2.8-1.5,5.4-3.9,6.8l-96.1,55.5C210,392.3,206.9,393.1,203.7,393.1z M203.7,264.7c-3,0-6,0.8-8.6,2.3L99,322.5c-2.1,1.2-3.4,3.4-3.4,5.9c0,2.5,1.3,4.7,3.4,5.9l96.1,55.5c5.3,3.1,11.9,3.1,17.3,0 l96.1-55.5c2.1-1.2,3.4-3.4,3.4-5.9c0-2.5-1.3-4.7-3.4-5.9L212.3,267C209.7,265.5,206.7,264.7,203.7,264.7z" class="st6"/></g><g class="st7"><linearGradient id="SVGID_6_" x1="466.086" x2="466.086" y1="455.133" y2="413.63" gradientUnits="userSpaceOnUse"><stop offset="0" style="stop-color:#383846;stop-opacity:0"/><stop offset="1" style="stop-color:#383846"/></linearGradient><path d="M536.7,455.1l-66.2-38.2c-5.3-3.1-11.9-3.1-17.3,0l-57.7,33.3l-0.5-0.9l57.7-33.3c5.6-3.2,12.6-3.2,18.2,0 l66.2,38.2L536.7,455.1z" class="st8"/></g><g class="st9"><linearGradient id="SVGID_7_" x1="720.391" x2="720.391" y1="455.133" y2="413.63" gradientUnits="userSpaceOnUse"><stop offset="0" style="stop-color:#383846;stop-opacity:0"/><stop offset="1" style="stop-color:#383846"/></linearGradient><path d="M791,455.1l-66.2-38.2c-5.3-3.1-11.9-3.1-17.3,0l-57.7,33.3l-0.5-0.9l57.7-33.3c5.6-3.2,12.6-3.2,18.2,0 l66.2,38.2L791,455.1z" class="st10"/></g><g class="st4"><linearGradient id="SVGID_8_" x1="54.854" x2="113.305" y1="310.767" y2="209.528" gradientUnits="userSpaceOnUse"><stop offset="0" style="stop-color:#383846;stop-opacity:0"/><stop offset="1" style="stop-color:#383846"/></linearGradient><path d="M178.3,247l-96.1-55.5c-5.6-3.2-12.6-3.2-18.2,0l-54,31.2v1.1l54.5-31.4c5.3-3.1,11.9-3.1,17.2,0l96.1,55.5 c2.1,1.2,3.4,3.4,3.4,5.9s-1.3,4.7-3.4,5.9l-96.1,55.5c-5.3,3.1-11.9,3.1-17.2,0L10,283.7v1.1L64,316c2.8,1.6,6,2.4,9.1,2.4 c3.1,0,6.3-0.8,9.1-2.4l96.1-55.5c2.5-1.4,3.9-3.9,3.9-6.8C182.2,251,180.7,248.4,178.3,247z" class="st11"/></g><linearGradient id="SVGID_9_" x1="519.242" x2="291.974" y1="365.774" y2="230.171" gradientUnits="userSpaceOnUse"><stop offset="0" style="stop-color:#383846"/><stop offset="1" style="stop-color:#292933"/></linearGradient><path d="M563,321.7L339.2,192.5c-5.5-3.2-12.3-3.2-17.7,0L225.4,248c-4.9,2.8-4.9,9.9,0,12.7l223.8,129.1	c5.5,3.2,12.3,3.2,17.7,0l96.1-55.5C567.9,331.5,567.9,324.5,563,321.7z" class="st12"/><linearGradient id="SVGID_10_" x1="91.295" x2="308.49" y1="179.442" y2="179.442" gradientUnits="userSpaceOnUse"><stop offset="0" style="stop-color:#292933"/><stop offset="1" style="stop-color:#383846"/></linearGradient><path d="M95,173.1l96.1-55.5c5.5-3.2,12.3-3.2,17.7,0l96.1,55.5c4.9,2.8,4.9,9.9,0,12.7l-96.1,55.5	c-5.5,3.2-12.3,3.2-17.7,0L95,185.8C90.1,183,90.1,175.9,95,173.1z" class="st13"/><linearGradient id="SVGID_11_" x1="580.192" x2="418.831" y1="251.726" y2="157.789" gradientUnits="userSpaceOnUse"><stop offset="0" style="stop-color:#383846"/><stop offset="1" style="stop-color:#292933"/></linearGradient><path d="M352.7,174l96.1-55.5c5.5-3.2,12.3-3.2,17.7,0l96.1,55.5c4.9,2.8,4.9,9.9,0,12.7l-96.1,55.5	c-5.5,3.2-12.3,3.2-17.7,0l-96.1-55.5C347.8,183.9,347.8,176.9,352.7,174z" class="st14"/><g class="st15"><linearGradient id="SVGID_12_" x1="809.997" x2="606.257" y1="326.546" y2="326.546" gradientUnits="userSpaceOnUse"><stop offset=".207" style="stop-color:#736ced;stop-opacity:0"/><stop offset="1" style="stop-color:#736ced"/></linearGradient><path d="M610.7,320.6l96.1-55.5c2.7-1.5,5.6-2.3,8.6-2.3c3,0,6,0.8,8.6,2.3l86,49.7v-1.1l-85.5-49.4 c-5.6-3.2-12.6-3.2-18.2,0l-96.1,55.5c-2.4,1.4-3.9,3.9-3.9,6.8c0,2.8,1.5,5.4,3.9,6.8l96.1,55.5c2.8,1.6,6,2.4,9.1,2.4 c3.2,0,6.3-0.8,9.1-2.4l85.5-49.4v-1.1l-86,49.7c-5.3,3.1-11.9,3.1-17.2,0l-96.1-55.5c-2.1-1.2-3.4-3.4-3.4-5.9 C607.2,324.1,608.5,321.9,610.7,320.6z" class="st16"/></g><g class="st17"><linearGradient id="SVGID_13_" x1="809.997" x2="735.107" y1="399.624" y2="399.624" gradientUnits="userSpaceOnUse"><stop offset=".207" style="stop-color:#383846;stop-opacity:0"/><stop offset="1" style="stop-color:#383846"/></linearGradient><path d="M736.1,399.6c0,2.5,1.3,4.7,3.4,5.9l70.5,40.7v1.1l-71-41c-2.4-1.4-3.9-3.9-3.9-6.8c0-2.8,1.5-5.4,3.9-6.8 l71-41v1.2l-70.5,40.7C737.4,394.9,736.1,397.1,736.1,399.6z" class="st18"/></g><g class="st17"><linearGradient id="SVGID_14_" x1="809.997" x2="735.107" y1="250.764" y2="250.764" gradientUnits="userSpaceOnUse"><stop offset=".207" style="stop-color:#383846;stop-opacity:0"/><stop offset="1" style="stop-color:#383846"/></linearGradient><path d="M736.1,250.8c0,2.5,1.3,4.7,3.4,5.9l70.5,40.7v1.2l-71-41c-2.4-1.4-3.9-3.9-3.9-6.8c0-2.8,1.5-5.4,3.9-6.8 l71-41v1.1l-70.5,40.7C737.4,246.1,736.1,248.3,736.1,250.8z" class="st19"/></g><linearGradient id="SVGID_15_" x1="219.134" x2="436.328" y1="105.012" y2="105.012" gradientUnits="userSpaceOnUse"><stop offset="0" style="stop-color:#292933"/><stop offset="1" style="stop-color:#383846"/></linearGradient><path d="M222.8,98.7l96.1-55.5c5.5-3.2,12.3-3.2,17.7,0l96.1,55.5c4.9,2.8,4.9,9.9,0,12.7l-96.1,55.5	c-5.5,3.2-12.3,3.2-17.7,0l-96.1-55.5C217.9,108.5,217.9,101.5,222.8,98.7z" class="st20"/><g class="st15"><linearGradient id="SVGID_16_" x1="52.226" x2="110.678" y1="45.463" y2="146.707" gradientUnits="userSpaceOnUse"><stop offset=".207" style="stop-color:#383846;stop-opacity:0"/><stop offset="1" style="stop-color:#383846"/></linearGradient><path d="M174.8,96.2L78.7,40.7c-5.6-3.2-12.6-3.2-18.2,0L10,69.8V71l51-29.4c5.3-3.1,11.9-3.1,17.3,0L174.3,97 c2.1,1.2,3.4,3.5,3.4,5.9s-1.3,4.7-3.4,5.9l-96.1,55.5c-5.3,3.1-11.9,3.1-17.3,0l-51-29.4v1.1l50.5,29.2c2.8,1.6,6,2.4,9.1,2.4 c3.2,0,6.3-0.8,9.1-2.4l96.1-55.5c2.4-1.4,3.9-3.9,3.9-6.8C178.7,100.1,177.2,97.6,174.8,96.2z" class="st21"/></g><g class="st15"><linearGradient id="SVGID_17_" x1="189.491" x2="208.776" y1="-25.269" y2="105.389" gradientUnits="userSpaceOnUse"><stop offset=".207" style="stop-color:#383846;stop-opacity:0"/><stop offset="1" style="stop-color:#383846"/></linearGradient><path d="M302.6,21.7L282.3,10h-2l21.8,12.6c2.1,1.2,3.4,3.4,3.4,5.9c0,2.5-1.3,4.7-3.4,5.9l-96.1,55.5 c-5.3,3.1-11.9,3.1-17.2,0L92.7,34.4c-2.1-1.2-3.4-3.5-3.4-5.9c0-2.5,1.3-4.7,3.4-5.9L114.5,10h-2L92.2,21.7 c-2.4,1.4-3.9,3.9-3.9,6.8c0,2.8,1.5,5.4,3.9,6.8l96.1,55.5c2.8,1.6,6,2.4,9.1,2.4c3.2,0,6.3-0.8,9.1-2.4l96.1-55.5 c2.5-1.4,3.9-3.9,3.9-6.8C306.5,25.7,305.1,23.1,302.6,21.7z" class="st22"/></g><g class="st15"><linearGradient id="SVGID_18_" x1="766.411" x2="656.027" y1="123.493" y2="233.878" gradientUnits="userSpaceOnUse"><stop offset=".207" style="stop-color:#9b4ce9;stop-opacity:0"/><stop offset="1" style="stop-color:#9b4ce9"/></linearGradient><path d="M608.5,172.8l96.1-55.5c5.3-3.1,11.9-3.1,17.3,0l88.2,50.9v-1.1l-87.7-50.6c-5.6-3.2-12.6-3.2-18.2,0 L608,171.9c-2.5,1.4-3.9,3.9-3.9,6.8c0,2.8,1.5,5.4,3.9,6.8l96.1,55.5c2.8,1.6,6,2.4,9.1,2.4c3.1,0,6.3-0.8,9.1-2.4l87.7-50.6v-1.1 l-88.2,50.9c-5.3,3.1-11.9,3.1-17.3,0l-96.1-55.5c-2.1-1.2-3.4-3.4-3.4-5.9C605.1,176.2,606.3,174,608.5,172.8z" class="st23"/></g><g class="st15"><linearGradient id="SVGID_19_" x1="640.524" x2="528.184" y1="49.22" y2="161.56" gradientUnits="userSpaceOnUse"><stop offset=".207" style="stop-color:#383846;stop-opacity:0"/><stop offset="1" style="stop-color:#383846"/></linearGradient><path d="M584.4,170.1c-3.2,0-6.3-0.8-9.1-2.4l-96.1-55.5c-2.4-1.4-3.9-3.9-3.9-6.8c0-2.8,1.5-5.4,3.9-6.8l96.1-55.5 c5.6-3.2,12.6-3.2,18.2,0l96.1,55.5c2.4,1.4,3.9,3.9,3.9,6.8c0,2.8-1.5,5.4-3.9,6.8l-96.1,55.5 C590.7,169.2,587.5,170.1,584.4,170.1z M479.7,99.5c-2.1,1.2-3.4,3.4-3.4,5.9c0,2.5,1.3,4.7,3.4,5.9l96.1,55.5 c5.3,3.1,11.9,3.1,17.3,0l96.1-55.5c2.1-1.2,3.4-3.4,3.4-5.9c0-2.5-1.3-4.7-3.4-5.9L593,44c-5.3-3.1-11.9-3.1-17.3,0L479.7,99.5z" class="st24"/></g><g class="st15"><linearGradient id="SVGID_20_" x1="483.664" x2="425.206" y1="-20.613" y2="80.638" gradientUnits="userSpaceOnUse"><stop offset=".207" style="stop-color:#383846;stop-opacity:0"/><stop offset="1" style="stop-color:#383846"/></linearGradient><path d="M559.6,23.2L536.7,10h-2l24.4,14.1c2.1,1.2,3.4,3.4,3.4,5.9c0,2.5-1.3,4.7-3.4,5.9l-96.1,55.5 c-5.3,3.1-11.9,3.1-17.2,0l-96.1-55.5c-2.1-1.2-3.4-3.4-3.4-5.9c0-2.5,1.3-4.7,3.4-5.9L374.2,10h-2l-22.9,13.2 c-2.4,1.4-3.9,4-3.9,6.8c0,2.8,1.5,5.4,3.9,6.8l96.1,55.5c2.8,1.6,6,2.4,9.1,2.4c3.1,0,6.3-0.8,9.1-2.4l96.1-55.5 c2.4-1.4,3.9-3.9,3.9-6.8C563.5,27.2,562.1,24.6,559.6,23.2z" class="st25"/></g><g class="st15"><linearGradient id="SVGID_21_" x1="585.867" x2="585.867" y1="460" y2="337.112" gradientUnits="userSpaceOnUse"><stop offset=".207" style="stop-color:#5f7cef;stop-opacity:0"/><stop offset="1" style="stop-color:#5f7cef"/></linearGradient><path d="M691,395L595,339.5c-5.6-3.2-12.6-3.2-18.2,0L480.7,395c-2.5,1.4-3.9,4-3.9,6.8c0,2.8,1.5,5.4,3.9,6.8 l89.1,51.4h2l-90.6-52.3c-2.1-1.2-3.4-3.5-3.4-5.9s1.3-4.7,3.4-5.9l96.1-55.5c2.7-1.5,5.6-2.3,8.6-2.3c3,0,6,0.8,8.6,2.3l96.1,55.5 c2.1,1.2,3.4,3.4,3.4,5.9s-1.3,4.7-3.4,5.9L600,460h2l89.1-51.4c2.4-1.4,3.9-3.9,3.9-6.8C695,399,693.5,396.4,691,395z" class="st26"/></g><g class="st1"><linearGradient id="SVGID_22_" x1="477.916" x2="695.034" y1="244.145" y2="217.739" gradientUnits="userSpaceOnUse"><stop offset="0" style="stop-color:#22adf6"/><stop offset=".308" style="stop-color:#5c7ff0"/><stop offset=".628" style="stop-color:#9154ea"/><stop offset=".869" style="stop-color:#b239e6"/><stop offset="1" style="stop-color:#bf2fe5"/></linearGradient><path d="M586.5,296.6c-3.3,0-6.7-0.9-9.6-2.6l-96-55.4c-2.8-1.6-4.4-4.5-4.4-7.6c0-3.2,1.7-6,4.4-7.6l96-55.4 c6-3.4,13.3-3.4,19.3,0l96,55.4c2.8,1.6,4.4,4.5,4.4,7.6c0,3.2-1.6,6.1-4.4,7.6l-96,55.4C593.1,295.8,589.8,296.6,586.5,296.6z M586.5,168.3c-2.8,0-5.6,0.7-8.1,2.2l-96,55.4c-1.8,1.1-2.9,2.9-2.9,5c0,2.1,1.1,4,2.9,5l96,55.4c5,2.9,11.3,2.9,16.3,0l96-55.4 c1.8-1.1,2.9-2.9,2.9-5c0-2.1-1.1-4-2.9-5l-96-55.4C592.1,169,589.3,168.3,586.5,168.3z M481.5,224.6L481.5,224.6L481.5,224.6z" class="st27"/></g><linearGradient id="SVGID_23_" x1="484.828" x2="769.677" y1="218.395" y2="183.751" gradientUnits="userSpaceOnUse"><stop offset="0" style="stop-color:#22adf6"/><stop offset=".308" style="stop-color:#5c7ff0"/><stop offset=".628" style="stop-color:#9154ea"/><stop offset=".869" style="stop-color:#b239e6"/><stop offset="1" style="stop-color:#bf2fe5"/></linearGradient><path d="M481.5,199.7l96-55.4c5.5-3.2,12.3-3.2,17.8,0l96,55.4c4.9,2.8,4.9,9.9,0,12.7l-96,55.4	c-5.5,3.2-12.3,3.2-17.8,0l-96-55.4C476.7,209.6,476.7,202.5,481.5,199.7z" class="st28"/><path d="M607.4,189.2c-2.3-1.3-5.9-1.3-8.2,0l-12.5,7.2l-12.5-7.2c-2.3-1.3-5.9-1.3-8.2,0c-2.3,1.3-2.2,3.4,0,4.7	l12.5,7.2l-12.5,7.2c-2.3,1.3-2.2,3.4,0,4.7c2.3,1.3,5.9,1.3,8.2,0l12.5-7.2l12.5,7.2c2.3,1.3,5.9,1.3,8.2,0c2.3-1.3,2.2-3.4,0-4.7	l-12.5-7.2l12.5-7.2C609.7,192.6,609.7,190.5,607.4,189.2L607.4,189.2z" class="st29"/><g class="st1"><linearGradient id="SVGID_24_" x1="565.653" x2="607.024" y1="314.486" y2="309.454" gradientUnits="userSpaceOnUse"><stop offset="0" style="stop-color:#22adf6"/><stop offset=".308" style="stop-color:#5c7ff0"/><stop offset=".628" style="stop-color:#9154ea"/><stop offset=".869" style="stop-color:#b239e6"/><stop offset="1" style="stop-color:#bf2fe5"/></linearGradient><path d="M586.5,318.4c-3.2,0-6.3-0.8-9.1-2.4l-12.2-7c-0.3-0.1-0.3-0.5-0.2-0.7c0.1-0.3,0.5-0.3,0.7-0.2l12.2,7 c5.3,3.1,11.9,3.1,17.2,0l11.1-6.4c0.3-0.1,0.6-0.1,0.7,0.2c0.1,0.2,0.1,0.6-0.2,0.7l-11.1,6.4 C592.8,317.6,589.6,318.4,586.5,318.4z" class="st30"/></g><path d="M718.9,270c-1.7-1-4.5-1-6.1,0c-1.7,1-1.7,2.6,0,3.6c1.7,1,4.5,1,6.1,0C720.6,272.6,720.6,271,718.9,270	L718.9,270z" class="st31"/><path d="M333.6,200.1c-1.7-1-4.5-1-6.1,0c-1.7,1-1.7,2.6,0,3.6c1.7,1,4.5,1,6.1,0C335.4,202.6,335.3,201.1,333.6,200.1	L333.6,200.1z" class="st32"/><path d="M202.8,129.1c-1.7-1-4.5-1-6.1,0c-1.7,1-1.7,2.6,0,3.6s4.5,1,6.1,0C204.5,131.7,204.5,130.1,202.8,129.1	L202.8,129.1z" class="st33"/><path d="M330,51.8c-1.7-1-4.5-1-6.1,0c-1.7,1-1.7,2.6,0,3.6c1.7,1,4.5,1,6.1,0C331.7,54.4,331.7,52.8,330,51.8	L330,51.8z" class="st33"/><path d="M462.5,125.8c-1.7-1-4.5-1-6.1,0c-1.7,1-1.7,2.6,0,3.6c1.7,1,4.5,1,6.1,0S464.2,126.8,462.5,125.8L462.5,125.8	z" class="st32"/><g><linearGradient id="SVGID_25_" x1="176.075" x2="150.464" y1="162.055" y2="177.047" gradientUnits="userSpaceOnUse"><stop offset="0" style="stop-color:#383846"/><stop offset="1" style="stop-color:#292933"/></linearGradient><polygon points="179.5 165.9 169.5 160.1 142.6 175.7 152.7 181.5 179.5 165.9" class="st34"/><linearGradient id="SVGID_26_" x1="217.47" x2="173.473" y1="157.727" y2="182.395" gradientUnits="userSpaceOnUse"><stop offset="0" style="stop-color:#3c98f3;stop-opacity:.7"/><stop offset=".018" style="stop-color:#3b94ec;stop-opacity:.6991"/><stop offset=".151" style="stop-color:#3576ba;stop-opacity:.6924"/><stop offset=".287" style="stop-color:#2f5d8f;stop-opacity:.6856"/><stop offset=".424" style="stop-color:#2b486d;stop-opacity:.6787"/><stop offset=".562" style="stop-color:#273852;stop-opacity:.6717"/><stop offset=".702" style="stop-color:#252d3e;stop-opacity:.6647"/><stop offset=".845" style="stop-color:#232633;stop-opacity:.6575"/><stop offset=".994" style="stop-color:#23242f;stop-opacity:.65"/></linearGradient><polygon points="213.6 165.2 203.5 159.4 159 185.2 169.1 191 213.6 165.2" class="st35"/><linearGradient id="SVGID_27_" x1="208.897" x2="182.654" y1="180.118" y2="195.48" gradientUnits="userSpaceOnUse"><stop offset="0" style="stop-color:#383846"/><stop offset="1" style="stop-color:#292933"/></linearGradient><polygon points="212.4 184 202.3 178.2 174.7 194.2 184.7 200 212.4 184" class="st36"/><linearGradient id="SVGID_28_" x1="250.853" x2="196.82" y1="173.566" y2="203.862" gradientUnits="userSpaceOnUse"><stop offset="0" style="stop-color:#3c98f3;stop-opacity:.7"/><stop offset=".219" style="stop-color:#3578bc;stop-opacity:.689"/><stop offset=".487" style="stop-color:#2d5480;stop-opacity:.6755"/><stop offset=".715" style="stop-color:#283a54;stop-opacity:.6641"/><stop offset=".891" style="stop-color:#242a39;stop-opacity:.6552"/><stop offset=".994" style="stop-color:#23242f;stop-opacity:.65"/></linearGradient><polygon points="255.4 176.2 245.3 170.4 189.5 202.8 199.6 208.6 255.4 176.2" class="st37"/></g></svg>