<svg xmlns="http://www.w3.org/2000/svg" xmlns:xlink="http://www.w3.org/1999/xlink" x="0" y="0" version="1.1" viewBox="0 0 820 620" xml:space="preserve" style="enable-background:new 0 0 820 620"><style type="text/css">.st0{opacity:.65}.st1{opacity:.2}.st2{opacity:.63;fill:#0f0e13}.st3{fill:url(#SVGID_1_)}.st4{fill:url(#SVGID_2_)}.st5{opacity:.6}.st6{fill:url(#SVGID_3_)}.st7{fill:url(#SVGID_4_)}.st8{fill:url(#SVGID_5_)}.st9{fill:url(#SVGID_6_)}.st10{fill:url(#SVGID_7_)}.st11{fill:url(#SVGID_8_)}.st12{fill:url(#SVGID_9_)}.st13{fill:url(#SVGID_10_)}.st14{fill:url(#SVGID_11_)}.st15{fill:url(#SVGID_12_)}.st16{fill:url(#SVGID_13_)}.st17{fill:url(#SVGID_14_)}.st18{fill:url(#SVGID_15_)}.st19{opacity:.44;fill:url(#SVGID_16_)}.st20{opacity:.5;fill:url(#SVGID_17_)}.st21{fill:url(#SVGID_18_)}.st22{fill:url(#SVGID_19_)}.st23{fill:url(#SVGID_20_)}.st24{fill:url(#SVGID_21_)}.st25{fill:url(#SVGID_22_)}.st26{opacity:.44;fill:url(#SVGID_23_)}.st27{opacity:.5;fill:url(#SVGID_24_)}.st28{fill:url(#SVGID_25_)}.st29{fill:#0f0e13}.st30{fill:url(#SVGID_26_)}.st31{fill:url(#SVGID_27_)}.st32{fill:url(#SVGID_28_)}.st33{fill:#2c2c39}.st34{fill:url(#SVGID_29_)}.st35{fill:url(#SVGID_30_)}.st36{opacity:.39;fill:url(#SVGID_31_)}.st37{fill:url(#SVGID_32_)}.st38{opacity:.44;fill:url(#SVGID_33_)}.st39{opacity:.5;fill:url(#SVGID_34_)}.st40{opacity:.8;fill:url(#SVGID_35_)}.st41{fill:url(#SVGID_36_)}.st42{fill:url(#SVGID_37_)}.st43{opacity:.6;fill:url(#SVGID_38_)}.st44{opacity:.71}.st45,.st46{opacity:.69;fill:url(#SVGID_39_)}.st46{fill:url(#SVGID_40_)}.st47{opacity:.72}.st48{opacity:.6;fill:url(#SVGID_41_)}.st49{fill:url(#SVGID_42_)}.st50{fill:url(#SVGID_43_)}.st51{fill:url(#SVGID_44_)}.st52{opacity:.65;fill:url(#SVGID_45_)}.st53{fill:url(#SVGID_46_)}.st54{fill:url(#SVGID_47_)}.st55{opacity:.44;fill:url(#SVGID_48_)}.st56{fill:url(#SVGID_49_)}.st57{opacity:.49;fill:url(#SVGID_50_)}.st58{opacity:.33;fill:url(#SVGID_51_)}.st59{fill:url(#SVGID_52_)}.st60{opacity:.73;fill:url(#SVGID_53_)}.st61{opacity:.69;fill:url(#SVGID_54_)}.st62{opacity:.48;fill:url(#SVGID_55_)}.st63{opacity:.74;fill:url(#SVGID_56_)}.st64{fill:url(#SVGID_57_)}.st65{fill:url(#SVGID_58_)}.st66{fill:url(#SVGID_59_)}.st67{fill:url(#SVGID_60_)}.st68{fill:url(#SVGID_61_)}.st69{fill:url(#SVGID_62_)}.st70{opacity:.6;fill:url(#SVGID_63_)}.st71,.st72{opacity:.6;fill:url(#SVGID_64_)}.st72{fill:url(#SVGID_65_)}.st73,.st74{opacity:.6;fill:url(#SVGID_66_)}.st74{fill:url(#SVGID_67_)}.st75,.st76{opacity:.69;fill:url(#SVGID_68_)}.st76{fill:url(#SVGID_69_)}.st77{opacity:.76;fill:url(#SVGID_70_)}.st78{opacity:.72;fill:url(#SVGID_71_)}.st79{fill:#2a95de}.st80{opacity:.36}.st81{fill:url(#SVGID_72_)}.st82{fill:url(#SVGID_73_)}.st83{fill:url(#SVGID_74_)}.st84{fill:url(#SVGID_75_)}.st85{opacity:.6;fill:url(#SVGID_76_)}.st86{fill:#43a8df}.st87,.st88{opacity:.6;fill:url(#SVGID_77_)}.st88{fill:url(#SVGID_78_)}.st89{opacity:.22}.st90,.st91{opacity:.6;fill:url(#SVGID_79_)}.st91{fill:url(#SVGID_80_)}.st92,.st93{opacity:.6;fill:url(#SVGID_81_)}.st93{fill:url(#SVGID_82_)}.st94{opacity:.4;fill:url(#SVGID_83_)}.st95{fill:url(#SVGID_84_)}.st96,.st97{opacity:.6;fill:url(#SVGID_85_)}.st97{fill:url(#SVGID_86_)}.st98{fill:url(#SVGID_87_)}.st100,.st98,.st99{opacity:.6}.st99{fill:url(#SVGID_88_)}.st100{fill:url(#SVGID_89_)}.st101,.st102{opacity:.6;fill:url(#SVGID_90_)}.st102{fill:url(#SVGID_91_)}.st103,.st104{opacity:.6;fill:url(#SVGID_92_)}.st104{fill:url(#SVGID_93_)}.st105{fill:url(#SVGID_94_)}.st106{fill:url(#SVGID_95_)}.st107{fill:url(#SVGID_96_)}.st108{opacity:.4}.st109{opacity:.6;fill:url(#SVGID_97_)}.st110,.st111{opacity:.6;fill:url(#SVGID_98_)}.st111{fill:url(#SVGID_99_)}.st112{fill:url(#SVGID_100_)}.st113{opacity:.39;fill:url(#SVGID_101_)}.st114{fill:url(#SVGID_102_)}.st115{opacity:.5;fill:url(#SVGID_103_)}.st116{fill:url(#SVGID_104_)}.st117{fill:url(#SVGID_105_)}.st118{fill:url(#SVGID_106_)}.st119{fill:url(#SVGID_107_)}.st120{fill:url(#SVGID_108_)}.st121{fill:url(#SVGID_109_)}.st122{fill:url(#SVGID_110_)}.st123{fill:url(#SVGID_111_)}.st124{fill:url(#SVGID_112_)}.st125{opacity:.39;fill:url(#SVGID_113_)}.st126{fill:url(#SVGID_114_)}.st127{fill:url(#SVGID_115_)}.st128{opacity:.2;fill:url(#SVGID_116_)}.st129{fill:url(#SVGID_117_)}.st130{fill:url(#SVGID_118_)}.st131,.st132{opacity:.69;fill:url(#SVGID_119_)}.st132{fill:url(#SVGID_120_)}.st133{fill:none;stroke:#231f20;stroke-miterlimit:10}</style><g id="Layer_6"><g class="st0"><g class="st1"><polygon points="789 140.8 789 348.6 716.3 393 716.6 182.3" class="st2"/><linearGradient id="SVGID_1_" x1="-572.734" x2="-563.832" y1="149.352" y2="347.424" gradientTransform="matrix(1 0 0 1 1248.2952 0)" gradientUnits="userSpaceOnUse"><stop offset="0" style="stop-color:#383846"/><stop offset="1" style="stop-color:#0f0e13"/></linearGradient><polygon points="644.9 141.1 644.8 349.7 716.8 393 716.8 182.3" class="st3"/><linearGradient id="SVGID_2_" x1="-603.946" x2="-459.552" y1="140.356" y2="140.356" gradientTransform="matrix(1 0 0 1 1248.2952 0)" gradientUnits="userSpaceOnUse"><stop offset="0" style="stop-color:#1c1c24"/><stop offset="1" style="stop-color:#0f0e13"/></linearGradient><path d="M646.7,136.3l62.6-36.8c3.9-2.3,8.7-2.3,12.7,0l64.5,37.3c3.1,1.8,3.1,6.4,0,8.2l-63.3,36.3 c-3.9,2.2-8.6,2.2-12.5,0l-63.9-36.8C643.6,142.7,643.6,138.2,646.7,136.3z" class="st4"/></g><g><g class="st5"><linearGradient id="SVGID_3_" x1="-527.508" x2="-493.46" y1="193.34" y2="252.312" gradientTransform="matrix(1 0 0 1 1227.1415 0)" gradientUnits="userSpaceOnUse"><stop offset="0" style="stop-color:#383846"/><stop offset=".106" style="stop-color:#323340;stop-opacity:.9045"/><stop offset=".667" style="stop-color:#181b27;stop-opacity:.3995"/><stop offset="1" style="stop-color:#0e121d;stop-opacity:.1"/></linearGradient><rect width="1" height="78.1" x="716.2" y="183.8" class="st6"/></g><g class="st5"><linearGradient id="SVGID_4_" x1="-594.455" x2="-570.514" y1="148.877" y2="190.344" gradientTransform="matrix(1 0 0 1 1227.1415 0)" gradientUnits="userSpaceOnUse"><stop offset="0" style="stop-color:#383846"/><stop offset=".3" style="stop-color:#31313f;stop-opacity:.7295"/><stop offset=".747" style="stop-color:#1d1f2b;stop-opacity:.3276"/><stop offset="1" style="stop-color:#0e121d;stop-opacity:.1"/></linearGradient><path d="M644.7,197.2c0.3,0,0.5-0.2,0.5-0.5v-54.2c0-0.3-0.2-0.5-0.5-0.5s-0.5,0.2-0.5,0.5v54.2 C644.2,197,644.4,197.2,644.7,197.2z" class="st7"/></g><g class="st5"><linearGradient id="SVGID_5_" x1="1932.589" x2="1972.026" y1="106.711" y2="175.018" gradientTransform="matrix(-1 0 0 1 2669.4924 0)" gradientUnits="userSpaceOnUse"><stop offset="0" style="stop-color:#0e121d;stop-opacity:.1"/><stop offset=".333" style="stop-color:#181b27;stop-opacity:.3995"/><stop offset=".894" style="stop-color:#323340;stop-opacity:.9045"/><stop offset="1" style="stop-color:#383846"/></linearGradient><path d="M710.2,182.2L647,145.9c-1.6-0.9-2.6-2.6-2.6-4.5c0-1.9,1-3.6,2.6-4.5l64.5-37.3c4.1-2.4,9.1-2.3,13.2,0 l62.6,36.8c1.6,1,2.6,2.6,2.6,4.5s-1,3.6-2.6,4.5l-63.9,36.8c-2,1.2-4.3,1.7-6.5,1.7C714.5,183.9,712.3,183.3,710.2,182.2z M724.1,100.4c-3.7-2.2-8.4-2.2-12.2,0l-64.5,37.3c-1.3,0.8-2.1,2.1-2.1,3.7c0,1.5,0.8,2.9,2.1,3.7l63.3,36.3 c3.7,2.1,8.3,2.1,12,0l63.9-36.8c1.3-0.8,2.1-2.1,2.1-3.6c0-1.5-0.8-2.9-2.1-3.7L724.1,100.4z" class="st8"/></g></g></g><g><linearGradient id="SVGID_6_" x1="442.904" x2="538.13" y1="242.553" y2="242.553" gradientUnits="userSpaceOnUse"><stop offset="0" style="stop-color:#8c58eb;stop-opacity:0"/><stop offset=".583" style="stop-color:#4c8cf2;stop-opacity:.5829"/><stop offset="1" style="stop-color:#22adf6"/></linearGradient><path d="M529.3,289.2c-0.3,0-0.6-0.1-0.8-0.2c-0.7-0.4-0.9-1.4-0.5-2.1c6.5-10.2,8.6-21.3,6-32.1 c-3.5-14.4-14.9-27.5-32.8-37.9c-15.7-9.1-35.4-15.3-57-18.1c-0.8-0.1-1.4-0.9-1.3-1.7c0.1-0.8,0.9-1.4,1.7-1.3 c22,2.8,42,9.2,58.1,18.5c18.7,10.8,30.5,24.5,34.2,39.7c2.8,11.6,0.6,23.5-6.4,34.4C530.3,289,529.8,289.2,529.3,289.2z" class="st9"/></g><g class="st0"><g class="st1"><polygon points="18 140.8 18 348.6 90.7 393 90.4 182.3" class="st2"/><linearGradient id="SVGID_7_" x1="45.578" x2="54.48" y1="149.352" y2="347.424" gradientTransform="matrix(-1 0 0 1 176.9904 0)" gradientUnits="userSpaceOnUse"><stop offset="0" style="stop-color:#383846"/><stop offset="1" style="stop-color:#0f0e13"/></linearGradient><polygon points="162.1 141.1 162.2 349.7 90.2 393 90.2 182.3" class="st10"/><linearGradient id="SVGID_8_" x1="14.365" x2="158.76" y1="140.356" y2="140.356" gradientTransform="matrix(-1 0 0 1 176.9904 0)" gradientUnits="userSpaceOnUse"><stop offset="0" style="stop-color:#1c1c24"/><stop offset="1" style="stop-color:#0f0e13"/></linearGradient><path d="M160.3,136.3L97.7,99.5c-3.9-2.3-8.7-2.3-12.7,0l-64.5,37.3c-3.1,1.8-3.1,6.4,0,8.2l63.3,36.3 c3.9,2.2,8.6,2.2,12.5,0l63.9-36.8C163.4,142.7,163.4,138.2,160.3,136.3z" class="st11"/></g><g><g class="st5"><linearGradient id="SVGID_9_" x1="97.076" x2="131.124" y1="192.85" y2="251.823" gradientTransform="matrix(-1 0 0 1 204.7799 0)" gradientUnits="userSpaceOnUse"><stop offset="0" style="stop-color:#383846"/><stop offset=".106" style="stop-color:#323340;stop-opacity:.9045"/><stop offset=".667" style="stop-color:#181b27;stop-opacity:.3995"/><stop offset="1" style="stop-color:#0e121d;stop-opacity:.1"/></linearGradient><rect width="1" height="78.1" x="90.2" y="183.3" class="st12"/></g><g class="st5"><linearGradient id="SVGID_10_" x1="30.13" x2="54.071" y1="148.387" y2="189.854" gradientTransform="matrix(-1 0 0 1 204.7799 0)" gradientUnits="userSpaceOnUse"><stop offset="0" style="stop-color:#383846"/><stop offset=".3" style="stop-color:#31313f;stop-opacity:.7295"/><stop offset=".747" style="stop-color:#1d1f2b;stop-opacity:.3276"/><stop offset="1" style="stop-color:#0e121d;stop-opacity:.1"/></linearGradient><path d="M162.7,196.7c-0.3,0-0.5-0.2-0.5-0.5V142c0-0.3,0.2-0.5,0.5-0.5s0.5,0.2,0.5,0.5v54.2 C163.2,196.5,163,196.7,162.7,196.7z" class="st13"/></g><g class="st5"><linearGradient id="SVGID_11_" x1="1308.005" x2="1347.442" y1="106.221" y2="174.528" gradientTransform="matrix(1 0 0 1 -1237.5712 0)" gradientUnits="userSpaceOnUse"><stop offset="0" style="stop-color:#0e121d;stop-opacity:.1"/><stop offset=".333" style="stop-color:#181b27;stop-opacity:.3995"/><stop offset=".894" style="stop-color:#323340;stop-opacity:.9045"/><stop offset="1" style="stop-color:#383846"/></linearGradient><path d="M90.6,183.4c-2.3,0-4.5-0.6-6.5-1.7l-63.9-36.8c-1.6-0.9-2.6-2.6-2.6-4.5s1-3.6,2.6-4.5l62.6-36.8 c4-2.4,9.1-2.4,13.2,0l64.5,37.3c1.6,0.9,2.6,2.6,2.6,4.5c0,1.9-1,3.6-2.6,4.5l-63.3,36.3C95.1,182.8,92.8,183.4,90.6,183.4z M20.7,136.8c-1.3,0.8-2.1,2.1-2.1,3.7c0,1.5,0.8,2.9,2.1,3.6l63.9,36.8c3.7,2.1,8.3,2.1,12,0l63.3-36.3 c1.3-0.8,2.1-2.1,2.1-3.7c0-1.5-0.8-2.9-2.1-3.7L95.4,99.9c-3.8-2.2-8.4-2.2-12.2,0L20.7,136.8z" class="st14"/></g></g></g><g><linearGradient id="SVGID_12_" x1="160.441" x2="224.843" y1="135.067" y2="304.393" gradientTransform="matrix(-1 0 0 1 400.692 0)" gradientUnits="userSpaceOnUse"><stop offset="0" style="stop-color:#383846"/><stop offset=".245" style="stop-color:#2b2b36"/><stop offset=".717" style="stop-color:#17161c"/><stop offset="1" style="stop-color:#0f0e13"/></linearGradient><polygon points="113 201.9 113 453 200.8 506.6 200.5 252.1" class="st15"/><linearGradient id="SVGID_13_" x1="150.674" x2="161.43" y1="212.196" y2="451.532" gradientTransform="matrix(-1 0 0 1 400.692 0)" gradientUnits="userSpaceOnUse"><stop offset="0" style="stop-color:#383846"/><stop offset="1" style="stop-color:#0f0e13"/></linearGradient><polygon points="287.1 202.2 287.2 454.3 200.2 506.6 200.2 252" class="st16"/><linearGradient id="SVGID_14_" x1="59.207" x2="153.096" y1="273.995" y2="349.974" gradientTransform="matrix(-1 0 0 1 400.692 0)" gradientUnits="userSpaceOnUse"><stop offset="0" style="stop-color:#25abf6;stop-opacity:.3"/><stop offset="1" style="stop-color:#25aaf6;stop-opacity:0"/></linearGradient><polygon points="287.1 202.2 287.2 454.3 200.2 506.6 200.2 252" class="st17"/><linearGradient id="SVGID_15_" x1="112.958" x2="287.435" y1="201.325" y2="201.325" gradientTransform="matrix(-1 0 0 1 400.692 0)" gradientUnits="userSpaceOnUse"><stop offset="0" style="stop-color:#383846"/><stop offset="1" style="stop-color:#1b1a22"/></linearGradient><path d="M284.9,196.5L209.3,152c-4.7-2.8-10.6-2.8-15.3-0.1L116.1,197c-3.8,2.2-3.8,7.7,0,9.9l76.5,43.9 c4.7,2.7,10.4,2.7,15.1,0l77.2-44.4C288.7,204.1,288.7,198.7,284.9,196.5z" class="st18"/><linearGradient id="SVGID_16_" x1="135.34" x2="191.42" y1="246.844" y2="207.768" gradientTransform="matrix(-1 0 0 1 400.692 0)" gradientUnits="userSpaceOnUse"><stop offset="0" style="stop-color:#24acf6;stop-opacity:.3"/><stop offset="1" style="stop-color:#26a9f6;stop-opacity:0"/></linearGradient><path d="M284.9,196.5L209.3,152c-4.7-2.8-10.6-2.8-15.3-0.1L116.1,197c-3.8,2.2-3.8,7.7,0,9.9l76.5,43.9 c4.7,2.7,10.4,2.7,15.1,0l77.2-44.4C288.7,204.1,288.7,198.7,284.9,196.5z" class="st19"/><g class="st5"><linearGradient id="SVGID_17_" x1="258.171" x2="317.246" y1="218.151" y2="320.473" gradientTransform="matrix(-1 0 0 1 400.6666 0)" gradientUnits="userSpaceOnUse"><stop offset="0" style="stop-color:#383846"/><stop offset=".106" style="stop-color:#323340;stop-opacity:.9045"/><stop offset=".667" style="stop-color:#181b27;stop-opacity:.3995"/><stop offset="1" style="stop-color:#0e121d;stop-opacity:.1"/></linearGradient><rect width="1" height="135.9" x="112.5" y="201.4" class="st20"/></g><g class="st5"><linearGradient id="SVGID_18_" x1="176.245" x2="223.796" y1="160.167" y2="242.528" gradientTransform="matrix(-1 0 0 1 400.6666 0)" gradientUnits="userSpaceOnUse"><stop offset="0" style="stop-color:#383846"/><stop offset="1" style="stop-color:#383846"/></linearGradient><path d="M200.1,253.3c-2.7,0-5.4-0.7-7.8-2.1l-76.5-43.9c-1.9-1.1-3.1-3.1-3.1-5.4c0-2.2,1.2-4.2,3.1-5.4l77.9-45.1 c4.9-2.8,10.9-2.8,15.8,0.1l75.6,44.5c1.9,1.1,3.1,3.1,3.1,5.4c0,2.2-1.2,4.2-3.1,5.3l-77.2,44.4 C205.5,252.6,202.8,253.3,200.1,253.3z M201.6,150.4c-2.5,0-5.1,0.7-7.4,2l-77.9,45.1c-1.6,0.9-2.6,2.6-2.6,4.5 c0,1.9,1,3.6,2.6,4.5l76.5,43.9c4.5,2.6,10.1,2.6,14.6,0l77.2-44.4c1.6-0.9,2.6-2.6,2.6-4.5s-1-3.6-2.6-4.5L209,152.4 C206.7,151.1,204.1,150.4,201.6,150.4z" class="st21"/></g></g><g><linearGradient id="SVGID_19_" x1="573.446" x2="637.848" y1="135.067" y2="304.393" gradientUnits="userSpaceOnUse"><stop offset="0" style="stop-color:#383846"/><stop offset=".245" style="stop-color:#2b2b36"/><stop offset=".717" style="stop-color:#17161c"/><stop offset="1" style="stop-color:#0f0e13"/></linearGradient><polygon points="700.7 201.9 700.7 453 612.9 506.6 613.2 252.1" class="st22"/><linearGradient id="SVGID_20_" x1="563.679" x2="574.435" y1="212.196" y2="451.532" gradientUnits="userSpaceOnUse"><stop offset="0" style="stop-color:#383846"/><stop offset="1" style="stop-color:#0f0e13"/></linearGradient><polygon points="526.6 202.2 526.5 454.3 613.5 506.6 613.5 252" class="st23"/><linearGradient id="SVGID_21_" x1="472.212" x2="566.101" y1="273.995" y2="349.974" gradientUnits="userSpaceOnUse"><stop offset="0" style="stop-color:#9550ea;stop-opacity:.3"/><stop offset="1" style="stop-color:#9550ea;stop-opacity:0"/></linearGradient><polygon points="526.6 202.2 526.5 454.3 613.5 506.6 613.5 252" class="st24"/><linearGradient id="SVGID_22_" x1="525.963" x2="700.44" y1="201.325" y2="201.325" gradientUnits="userSpaceOnUse"><stop offset="0" style="stop-color:#383846"/><stop offset="1" style="stop-color:#1b1a22"/></linearGradient><path d="M528.8,196.5l75.6-44.5c4.7-2.8,10.6-2.8,15.3-0.1l77.9,45.1c3.8,2.2,3.8,7.7,0,9.9l-76.5,43.9 c-4.7,2.7-10.4,2.7-15.1,0l-77.2-44.4C525,204.1,525,198.7,528.8,196.5z" class="st25"/><linearGradient id="SVGID_23_" x1="548.345" x2="604.425" y1="246.844" y2="207.768" gradientUnits="userSpaceOnUse"><stop offset="0" style="stop-color:#9550ea;stop-opacity:.3"/><stop offset="1" style="stop-color:#9550ea;stop-opacity:0"/></linearGradient><path d="M528.8,196.5l75.6-44.5c4.7-2.8,10.6-2.8,15.3-0.1l77.9,45.1c3.8,2.2,3.8,7.7,0,9.9l-76.5,43.9 c-4.7,2.7-10.4,2.7-15.1,0l-77.2-44.4C525,204.1,525,198.7,528.8,196.5z" class="st26"/><g class="st5"><linearGradient id="SVGID_24_" x1="671.176" x2="730.252" y1="218.151" y2="320.473" gradientUnits="userSpaceOnUse"><stop offset="0" style="stop-color:#383846"/><stop offset=".106" style="stop-color:#323340;stop-opacity:.9045"/><stop offset=".667" style="stop-color:#181b27;stop-opacity:.3995"/><stop offset="1" style="stop-color:#0e121d;stop-opacity:.1"/></linearGradient><rect width="1" height="135.9" x="700.2" y="201.4" class="st27"/></g><g class="st5"><linearGradient id="SVGID_25_" x1="589.25" x2="636.801" y1="160.168" y2="242.528" gradientUnits="userSpaceOnUse"><stop offset="0" style="stop-color:#383846"/><stop offset="1" style="stop-color:#383846"/></linearGradient><path d="M613.6,253.3c-2.7,0-5.4-0.7-7.8-2.1l-77.2-44.4c-1.9-1.1-3.1-3.1-3.1-5.3c0-2.2,1.1-4.2,3.1-5.4l75.6-44.5 c4.9-2.9,10.9-2.9,15.8-0.1l77.9,45.1c1.9,1.1,3.1,3.1,3.1,5.4c0,2.2-1.2,4.2-3.1,5.4l-76.5,43.9 C619,252.6,616.3,253.3,613.6,253.3z M612.1,150.4c-2.6,0-5.2,0.7-7.4,2L529,196.9c-1.6,1-2.6,2.6-2.6,4.5s1,3.6,2.6,4.5 l77.2,44.4c4.5,2.6,10.1,2.6,14.6,0l76.5-43.9c1.6-0.9,2.6-2.6,2.6-4.5c0-1.9-1-3.6-2.6-4.5l-77.9-45.1 C617.2,151,614.7,150.4,612.1,150.4z" class="st28"/></g></g><g><polygon points="784.1 265.2 784.1 535.2 728.4 535.8 728.6 297" class="st29"/><linearGradient id="SVGID_26_" x1="616.538" x2="693.198" y1="217.869" y2="347.632" gradientUnits="userSpaceOnUse"><stop offset="0" style="stop-color:#262630"/><stop offset="1" style="stop-color:#0f0e13"/></linearGradient><polygon points="673.6 265.3 673.6 425.3 728.8 458.5 728.8 296.9" class="st30"/><linearGradient id="SVGID_27_" x1="673.219" x2="783.921" y1="264.8" y2="264.8" gradientUnits="userSpaceOnUse"><stop offset="0" style="stop-color:#1c1c24"/><stop offset="1" style="stop-color:#0f0e13"/></linearGradient><path d="M675,261.7l48-28.2c3-1.8,6.7-1.8,9.7,0l49.4,28.6c2.4,1.4,2.4,4.9,0,6.3l-48.5,27.8c-3,1.7-6.6,1.7-9.6,0 L675,268C672.6,266.6,672.6,263.1,675,261.7z" class="st31"/></g><g class="st5"><linearGradient id="SVGID_28_" x1="708.942" x2="739.292" y1="238.531" y2="291.099" gradientTransform="matrix(-1 0 0 1 1452.7986 0)" gradientUnits="userSpaceOnUse"><stop offset="0" style="stop-color:#0e121d;stop-opacity:.1"/><stop offset=".333" style="stop-color:#181b27;stop-opacity:.3995"/><stop offset=".894" style="stop-color:#323340;stop-opacity:.9045"/><stop offset="1" style="stop-color:#383846"/></linearGradient><path d="M728.3,297.9c-1.7,0-3.5-0.4-5-1.3l-48.5-27.8c-1.3-0.7-2.1-2.1-2.1-3.6c0-1.5,0.8-2.8,2.1-3.6l49.4-28.6 c3.2-1.8,7.1-1.8,10.2,0l48,28.2c1.3,0.8,2,2.1,2,3.6c0,1.5-0.8,2.8-2.1,3.5l-49,28.2C731.8,297.5,730.1,297.9,728.3,297.9z M729.3,232.7c-1.6,0-3.2,0.4-4.6,1.2l-49.4,28.6c-1,0.6-1.6,1.6-1.6,2.7s0.6,2.1,1.6,2.7l48.5,27.8c2.8,1.6,6.3,1.6,9.1,0 l49-28.2c1-0.6,1.6-1.6,1.6-2.7c0-1.1-0.6-2.1-1.5-2.7l-48-28.2C732.5,233.1,730.9,232.7,729.3,232.7z" class="st32"/></g><g class="st5"><rect width="1" height="36.1" x="672.8" y="264.8" class="st33"/></g><g class="st5"><linearGradient id="SVGID_29_" x1="720.1" x2="735.961" y1="301.676" y2="329.148" gradientUnits="userSpaceOnUse"><stop offset="0" style="stop-color:#383846"/><stop offset=".106" style="stop-color:#323340;stop-opacity:.9045"/><stop offset=".667" style="stop-color:#181b27;stop-opacity:.3995"/><stop offset="1" style="stop-color:#0e121d;stop-opacity:.1"/></linearGradient><rect width="1" height="36.1" x="727.5" y="297.4" class="st34"/></g><g><linearGradient id="SVGID_30_" x1="504.339" x2="462.785" y1="355.589" y2="488.23" gradientUnits="userSpaceOnUse"><stop offset="0" style="stop-color:#383846"/><stop offset=".245" style="stop-color:#2b2b36"/><stop offset=".717" style="stop-color:#17161c"/><stop offset="1" style="stop-color:#0f0e13"/></linearGradient><polygon points="438.9 397.2 438.8 534.9 500.6 535 500.6 432.6" class="st35"/><polygon points="562.5 397 562.5 535.3 500.1 535.2 500.4 432.6" class="st29"/><linearGradient id="SVGID_31_" x1="414.385" x2="453.031" y1="387.779" y2="454.765" gradientUnits="userSpaceOnUse"><stop offset="0" style="stop-color:#24acf6;stop-opacity:.3"/><stop offset="1" style="stop-color:#25abf6;stop-opacity:0"/></linearGradient><polygon points="438.9 397.2 438.8 534.7 500.6 535.8 500.6 432.6" class="st36"/><linearGradient id="SVGID_32_" x1="479.097" x2="506.232" y1="368.808" y2="404.627" gradientUnits="userSpaceOnUse"><stop offset="0" style="stop-color:#383846"/><stop offset="1" style="stop-color:#23232d"/></linearGradient><path d="M440.4,393.2l53.7-31.6c3.3-2,7.5-2,10.9,0l55.3,32c2.7,1.6,2.7,5.5,0,7L506,431.7c-3.3,1.9-7.4,1.9-10.7,0 l-54.8-31.5C437.7,398.6,437.7,394.7,440.4,393.2z" class="st37"/><linearGradient id="SVGID_33_" x1="499.028" x2="500.476" y1="353.911" y2="401.308" gradientUnits="userSpaceOnUse"><stop offset="0" style="stop-color:#9550ea;stop-opacity:.3"/><stop offset="1" style="stop-color:#9550ea;stop-opacity:0"/></linearGradient><path d="M440.4,393.2l53.7-31.6c3.3-2,7.5-2,10.9,0l55.3,32c2.7,1.6,2.7,5.5,0,7L506,431.7c-3.3,1.9-7.4,1.9-10.7,0 l-54.8-31.5C437.7,398.6,437.7,394.7,440.4,393.2z" class="st38"/></g><g class="st5"><linearGradient id="SVGID_34_" x1="536.744" x2="587.176" y1="411.394" y2="498.746" gradientUnits="userSpaceOnUse"><stop offset="0" style="stop-color:#383846"/><stop offset=".106" style="stop-color:#323340;stop-opacity:.9045"/><stop offset=".667" style="stop-color:#181b27;stop-opacity:.3995"/><stop offset="1" style="stop-color:#0e121d;stop-opacity:.1"/></linearGradient><rect width="1" height="115.9" x="561.5" y="397.1" class="st39"/></g><g class="st5"><linearGradient id="SVGID_35_" x1="481.669" x2="517.427" y1="442.978" y2="504.912" gradientUnits="userSpaceOnUse"><stop offset="0" style="stop-color:#383846"/><stop offset=".106" style="stop-color:#323340;stop-opacity:.9045"/><stop offset=".667" style="stop-color:#181b27;stop-opacity:.3995"/><stop offset="1" style="stop-color:#0e121d;stop-opacity:.1"/></linearGradient><rect width="1" height="82" x="499.1" y="432.9" class="st40"/></g><g class="st5"><linearGradient id="SVGID_36_" x1="483.264" x2="517.165" y1="367.272" y2="425.991" gradientUnits="userSpaceOnUse"><stop offset="0" style="stop-color:#383846"/><stop offset="1" style="stop-color:#383846"/></linearGradient><path d="M500.6,433.6c-1.9,0-3.9-0.5-5.6-1.5l-54.8-31.5c-1.4-0.8-2.3-2.3-2.3-3.9c0-1.6,0.8-3.1,2.2-3.9l53.7-31.6 c3.5-2.1,7.8-2.1,11.4,0l55.3,32c1.4,0.8,2.3,2.3,2.3,3.9c0,1.6-0.9,3.1-2.3,3.9l-54.3,31.2C504.5,433.1,502.5,433.6,500.6,433.6z M499.6,360.6c-1.8,0-3.6,0.5-5.2,1.4l-53.7,31.6c-1.1,0.6-1.8,1.8-1.8,3.1c0,1.3,0.7,2.4,1.8,3.1l54.8,31.5 c3.2,1.8,7.1,1.8,10.2,0l54.3-31.2c1.1-0.6,1.8-1.8,1.8-3.1c0-1.3-0.7-2.4-1.8-3.1l-55.3-32C503.1,361.1,501.3,360.6,499.6,360.6z" class="st41"/></g><g><linearGradient id="SVGID_37_" x1="275.904" x2="454.711" y1="261.957" y2="261.957" gradientUnits="userSpaceOnUse"><stop offset="0" style="stop-color:#22adf6"/><stop offset=".417" style="stop-color:#4c8cf2;stop-opacity:.5829"/><stop offset="1" style="stop-color:#8c58eb;stop-opacity:0"/></linearGradient><path d="M419.7,343.2c-37.5,0-73.6-8.5-101.1-24.4c-27.5-15.9-42.7-37.1-42.7-59.7c0-22.5,14.9-43.5,42.1-59.3 c14.7-8.5,32-15,51.3-19.1c0.8-0.2,1.6,0.3,1.8,1.2c0.2,0.8-0.3,1.6-1.2,1.8c-19,4.1-36,10.4-50.4,18.8 c-26.2,15.2-40.6,35.4-40.6,56.7c0,21.5,14.7,41.8,41.2,57.1c35.1,20.2,84.7,28.3,132.9,21.7c0.8-0.1,1.6,0.5,1.7,1.3 c0.1,0.8-0.5,1.6-1.3,1.7C442.2,342.5,430.9,343.2,419.7,343.2z" class="st42"/></g><linearGradient id="SVGID_38_" x1="279.728" x2="401.889" y1="293.199" y2="293.199" gradientUnits="userSpaceOnUse"><stop offset="0" style="stop-color:#22adf6"/><stop offset=".417" style="stop-color:#4c8cf2;stop-opacity:.5829"/><stop offset="1" style="stop-color:#8c58eb;stop-opacity:0"/></linearGradient><path d="M324.9,315.5c-0.6,0.8-1.2,1.6-1.7,2.5c-0.1,0.2-0.2,0.3-0.3,0.5c-1.4-0.9-2.7-1.9-4-2.9 c-0.2-0.1-0.4-0.3-0.6-0.5c-2.4-1.8-4.6-3.1-6.7-4.2c-17.9-12.3-29-27.2-31.9-43.1c0.5,0.2,1.1,0.3,1.8,0.3h0.1 c0.8,0,1.1,0.1,1.6,3.2c0.5,3,1.2,7.5,5.4,11.6c2.3,2.3,4.4,2.9,6.2,3.4c2.5,0.7,4.8,1.4,8.5,6.6c1.1,1.6,1.3,2.2,1.5,2.8 c0.4,1.2,0.8,2.1,4.4,5.9c3.7,4,7,4.5,9.5,5c1.6,0.3,2.9,0.5,4,1.5c0.8,0.6,1,1.4,1.3,2.9c0.3,1.1,0.6,2.4,1.3,3.9 C325.1,315.2,325.5,314.8,324.9,315.5z" class="st43"/><g class="st44"><radialGradient id="SVGID_39_" cx="369.668" cy="182.153" r="19.515" gradientTransform="matrix(0.6134 1.066678e-02 -3.939711e-03 0.6021 143.0386 68.5358)" gradientUnits="userSpaceOnUse"><stop offset="0" style="stop-color:#22adf6"/><stop offset="1" style="stop-color:#22adf6;stop-opacity:0"/></radialGradient><path d="M379.4,172.4c-5.7-5.4-15-5.4-20.7,0c-5.7,5.4-5.7,14.2,0.1,19.6c5.7,5.4,15,5.4,20.7,0 C385.2,186.5,385.1,177.8,379.4,172.4L379.4,172.4z" class="st45"/><radialGradient id="SVGID_40_" cx="369.668" cy="182.153" r="6.136" gradientTransform="matrix(0.6134 0 0 0.5722 142.308 77.9178)" gradientUnits="userSpaceOnUse"><stop offset="0" style="stop-color:#fff"/><stop offset="1" style="stop-color:#fff;stop-opacity:0"/></radialGradient><path d="M371.8,179.5c-1.5-1.5-4-1.5-5.6,0c-1.5,1.5-1.5,3.8,0,5.3c1.5,1.5,4,1.5,5.6,0 C373.4,183.3,373.4,181,371.8,179.5L371.8,179.5z" class="st46"/></g><g class="st47"><linearGradient id="SVGID_41_" x1="277.341" x2="371.767" y1="220.355" y2="220.355" gradientUnits="userSpaceOnUse"><stop offset="0" style="stop-color:#22adf6"/><stop offset=".417" style="stop-color:#4c8cf2;stop-opacity:.5829"/><stop offset="1" style="stop-color:#8c58eb;stop-opacity:0"/></linearGradient><path d="M352.2,182.9c-5.7,0.7-9.6,1.2-9.6,1.2c-7,0.9-11.3-7.4-12-0.9s-7.2,7.9-7.2,7.9c-4.9,0.1-8.2-5.2-16.6-2.2 c-14.3,5.1-10.7,18.5-14.6,21.2c-6.2,4.3-1-12.9-10.7-5.4c-4.4,3.4-4.2,53.1-4.2,53.1s0,1.2,0,2.4c0-1.2,0.1-2.4,0.1-2.4 c0.5-20.6,14.3-41,41.3-56.7c9.8-5.7,20.7-10.4,32.4-14.1c0,0,10.4-3.3,20.7-6.6C364.7,181.4,357.6,182.2,352.2,182.9z" class="st48"/><g><linearGradient id="SVGID_42_" x1="276.039" x2="345.158" y1="225.44" y2="225.44" gradientTransform="matrix(0.9999 -1.390573e-02 1.914182e-02 1.3764 -4.8319 -87.5737)" gradientUnits="userSpaceOnUse"><stop offset="0" style="stop-color:#22adf6"/><stop offset=".417" style="stop-color:#4c8cf2;stop-opacity:.5829"/><stop offset="1" style="stop-color:#8c58eb;stop-opacity:0"/></linearGradient><path d="M277.5,257.8c-0.8,0-1.5-0.7-1.5-1.5c0-0.1-0.1-12.2,0.3-24.6c0.9-25.6,3.2-27.4,4.2-28.2 c2.5-2,4.5-2.6,6.1-2c2.1,0.8,2.7,3.2,3.2,5.4c0.2,0.8,0.5,2,0.7,2.4c0.1,0,0.4-0.1,0.8-0.4c0.8-0.6,1.3-2.6,1.8-4.7 c1.2-5.2,2.9-13,13.2-16.7c5.8-2.1,9.6-0.5,12.6,0.8c1.5,0.7,2.9,1.2,4.3,1.3c0.9-0.2,5.4-1.7,5.9-6.6c0.1-1.3,0.5-2.9,1.8-3.6 c1.4-0.7,2.9,0.1,4.6,1.1c1.9,1.1,4.2,2.4,6.9,2c0.8-0.1,1.6,0.5,1.7,1.3s-0.5,1.6-1.3,1.7c-3.7,0.4-6.6-1.2-8.7-2.4 c-0.6-0.3-1.3-0.7-1.7-0.9c-0.1,0.2-0.1,0.5-0.2,1.1c-0.6,6-5.8,8.7-8.4,9.2l-0.3,0c0,0-0.1,0-0.1,0c-2.1,0-3.8-0.8-5.5-1.5 c-2.8-1.2-5.7-2.5-10.4-0.8c-8.7,3.1-10.1,9.4-11.3,14.5c-0.6,2.8-1.2,5.3-3,6.5c-0.5,0.3-2,1.4-3.6,0.8 c-1.7-0.7-2.1-2.7-2.6-4.6c-0.3-1.1-0.7-3-1.3-3.2c-0.1,0-0.9-0.2-3.2,1.6c-2.4,2.2-3.6,27.4-3.4,50.4 C279,257.1,278.4,257.8,277.5,257.8C277.5,257.8,277.5,257.8,277.5,257.8z" class="st49"/></g></g><g><linearGradient id="SVGID_43_" x1="275.64" x2="337.271" y1="291.31" y2="291.31" gradientTransform="matrix(0.9999 -1.390568e-02 1.390568e-02 0.9999 -3.5492 4.6666)" gradientUnits="userSpaceOnUse"><stop offset="0" style="stop-color:#22adf6"/><stop offset=".417" style="stop-color:#4c8cf2;stop-opacity:.5829"/><stop offset="1" style="stop-color:#8c58eb;stop-opacity:0"/></linearGradient><path d="M336.7,325.4c-0.3,0-0.5-0.1-0.8-0.2c-10-6-11.2-10.9-11.9-14.1c-0.4-1.5-0.6-2.3-1.3-2.9 c-1.2-1-2.4-1.2-4-1.5c-2.6-0.5-5.8-1-9.5-5c-3.5-3.7-3.9-4.6-4.4-5.9c-0.2-0.5-0.4-1.2-1.5-2.8c-3.6-5.2-6-5.9-8.5-6.6 c-1.8-0.5-3.9-1.1-6.2-3.4c-4.1-4.1-4.9-8.7-5.4-11.6c-0.5-3.1-0.7-3.2-1.6-3.2c0,0-0.1,0-0.1,0c-2.4,0-4.2-1.3-5.2-3.6 c0-0.1-0.1-0.2-0.1-0.4c-0.2-0.3-0.3-0.6-0.3-1c0,0,0-0.1,0-0.1c-0.3-1.7-0.4-3.7,0.4-4.4l0.7-0.7l1,0.4c0.9,0.4,1.1,1.3,0.9,4.4 c0.1,0.6,0.4,1.1,0.7,1.5c0.5,0.6,1.1,0.9,1.9,0.8c0,0,0.1,0,0.1,0c3.6,0,4,3,4.5,5.7c0.5,2.9,1.1,6.5,4.5,10 c1.7,1.7,3.2,2.2,4.9,2.7c2.7,0.8,5.9,1.7,10.1,7.8c1.3,1.9,1.6,2.8,1.9,3.5c0.3,0.7,0.5,1.3,3.7,4.8c3.1,3.2,5.5,3.7,7.9,4.1 c1.8,0.3,3.7,0.6,5.4,2.1c1.6,1.3,2,3,2.3,4.6c0.7,2.9,1.6,6.9,10.6,12.2c0.7,0.4,0.9,1.3,0.5,2.1 C337.7,325.1,337.2,325.4,336.7,325.4z" class="st50"/></g><linearGradient id="SVGID_44_" x1="435.117" x2="646.896" y1="380.54" y2="210.972" gradientUnits="userSpaceOnUse"><stop offset="0" style="stop-color:#22adf6"/><stop offset=".329" style="stop-color:#4c8cf2;stop-opacity:.5829"/><stop offset=".788" style="stop-color:#8c58eb;stop-opacity:0"/></linearGradient><path d="M428.7,389.8c-0.7,0-1.3,0-2,0c-1.2,0-2.2-1-2.2-2.2c0-1.2,1-2.2,2.2-2.2c0,0,0,0,0,0 c52.9,0.3,102.5-11.5,139.8-33.1c36.2-21.1,56.2-48.9,56.1-78.4c0-29.7-20.3-57.8-57-79c-1-0.6-1.4-1.9-0.8-3c0.6-1,1.9-1.4,3-0.8 c38.1,22,59.1,51.4,59.2,82.8c0,31.2-20.7,60.4-58.3,82.2C531.2,377.9,481.6,389.8,428.7,389.8z" class="st51"/><g><linearGradient id="SVGID_45_" x1="370.173" x2="336.812" y1="318.504" y2="472.229" gradientUnits="userSpaceOnUse"><stop offset="0" style="stop-color:#383846"/><stop offset=".189" style="stop-color:#2e2e3a"/><stop offset=".703" style="stop-color:#18171e"/><stop offset="1" style="stop-color:#0f0e13"/></linearGradient><polygon points="371.4 340.9 371.4 535 309.1 535.2 309.3 377 309.3 376.5 309.5 376.4 371.2 341.1" class="st52"/><linearGradient id="SVGID_46_" x1="205.929" x2="257.568" y1="264.668" y2="400.438" gradientUnits="userSpaceOnUse"><stop offset="0" style="stop-color:#383846"/><stop offset=".245" style="stop-color:#2b2b36"/><stop offset=".717" style="stop-color:#17161c"/><stop offset="1" style="stop-color:#0f0e13"/></linearGradient><polygon points="309.5 376.5 309.5 535.2 272.8 535.2 247.7 535.2 247.8 342.4 247.8 341.1 309.5 376.4" class="st53"/><linearGradient id="SVGID_47_" x1="247.37" x2="371.238" y1="340.535" y2="340.535" gradientUnits="userSpaceOnUse"><stop offset="0" style="stop-color:#292933"/><stop offset="1" style="stop-color:#383846"/></linearGradient><path d="M249.4,337.1l53.7-31.6c3.3-2,7.5-2,10.9,0l55.3,32c2.7,1.6,2.7,5.5,0,7l-54.3,31.2c-3.3,1.9-7.4,1.9-10.7,0 l-54.8-31.5C246.7,342.5,246.7,338.7,249.4,337.1z" class="st54"/><linearGradient id="SVGID_48_" x1="320.454" x2="305.981" y1="306.762" y2="350.902" gradientUnits="userSpaceOnUse"><stop offset="0" style="stop-color:#1b79ab;stop-opacity:.3"/><stop offset=".111" style="stop-color:#1c81b6;stop-opacity:.2666"/><stop offset=".483" style="stop-color:#2197d7;stop-opacity:.1551"/><stop offset=".792" style="stop-color:#23a5ec;stop-opacity:6.224951e-02"/><stop offset="1" style="stop-color:#24aaf3;stop-opacity:0"/></linearGradient><path d="M249.4,337.1l53.7-31.6c3.3-2,7.5-2,10.9,0l55.3,32c2.7,1.6,2.7,5.5,0,7l-54.3,31.2c-3.3,1.9-7.4,1.9-10.7,0 l-54.8-31.5C246.7,342.5,246.7,338.7,249.4,337.1z" class="st55"/><g class="st5"><linearGradient id="SVGID_49_" x1="292.229" x2="326.13" y1="311.192" y2="369.91" gradientUnits="userSpaceOnUse"><stop offset="0" style="stop-color:#383846"/><stop offset="1" style="stop-color:#383846"/></linearGradient><path d="M309.6,377.5c-1.9,0-3.9-0.5-5.6-1.5l-54.8-31.5c-1.4-0.8-2.3-2.3-2.3-3.9c0-1.6,0.8-3.1,2.2-3.9l53.7-31.6 c3.5-2.1,7.8-2.1,11.4,0l55.3,32c1.4,0.8,2.3,2.3,2.3,3.9s-0.9,3.1-2.3,3.9l-54.3,31.2C313.4,377,311.5,377.5,309.6,377.5z M308.5,304.5c-1.8,0-3.6,0.5-5.2,1.4l-53.7,31.6c-1.1,0.6-1.8,1.8-1.8,3.1c0,1.3,0.7,2.4,1.8,3.1l54.8,31.5 c3.2,1.8,7.1,1.8,10.2,0L369,344c1.1-0.6,1.8-1.8,1.8-3.1c0-1.3-0.7-2.4-1.8-3.1l-55.3-32C312.1,305,310.3,304.5,308.5,304.5z" class="st56"/></g></g><linearGradient id="SVGID_50_" x1="451.678" x2="622.588" y1="319.856" y2="319.856" gradientUnits="userSpaceOnUse"><stop offset="0" style="stop-color:#22adf6"/><stop offset=".37" style="stop-color:#4c8cf2;stop-opacity:.5829"/><stop offset=".888" style="stop-color:#8c58eb;stop-opacity:0"/></linearGradient><path d="M622.6,273.9c0,29.5-19.9,57.4-56.1,78.4c-31.3,18.2-71.4,29.4-114.8,32.3c2.8-2.4,4.9-5.2,6.6-7.7 c1.7-2.3,3.2-4.5,5-5.7c1.3-0.9,2.9-0.8,5.4-0.6c5.9,0.5,14.1,1.2,22-16.9c1.9-4.3,2.8-8.4,3.6-12.1c1.9-8.4,3.2-14.5,14.1-18.6 c7-2.7,9.7,2.1,13.5,10c3.1,6.4,6.6,13.6,14.6,11.9c8.2-1.8,9.1-4.9,9.5-9.1c0.2-2.7,0.5-5.4,5-9c5.2-4.1,7.9-2.6,10.9-1.1 c2.4,1.3,6,3.2,9.6-1c4.1-4.8,7.1-3.8,11.3-2.4c3.9,1.4,8.7,3,13.8-1.7c5.7-5.4,3.6-10.9,1.9-15.4c-1.6-4.3-2.5-7.1-0.3-10.2 c2.4-3.2,5.1-3.1,7.7-3.1c1.9,0.1,4,0.1,5.3-1.5c1.2-1.5,1.3-3.6,0.4-7.3c-1-3.9-2.3-7.3-3.3-10c-1.1-2.8-2.3-5.9-1.8-6.8 c0.1-0.2,0.6-0.5,1.2-0.7c4.9-1.3,10.8-5.5,12.2-10.7C621.6,261.2,622.6,267.5,622.6,273.9z" class="st57"/><linearGradient id="SVGID_51_" x1="433.88" x2="651.189" y1="336.432" y2="336.432" gradientUnits="userSpaceOnUse"><stop offset="0" style="stop-color:#22adf6"/><stop offset=".417" style="stop-color:#4c8cf2;stop-opacity:.5829"/><stop offset="1" style="stop-color:#8c58eb;stop-opacity:0"/></linearGradient><path d="M590.5,341.1c4.1-6.4,10.9-10.7,16.8-15.2c0.3-1.3,0.7-2.5,1.1-3.9c2.9-9.3,8.3-18.1,11.4-27.4 c0.7-2.6,2.2-7,2.7-9.6c-2.8,1.3-8,2.2-10.3,1.7c-3.2-0.8-5.6-1.4-9.2,1.9c-4.2,3.9-3.9,8.1-3.5,12.5c0.3,3.9,0.7,8-2.2,11.5 c-3.5,4.3-7.1,2.3-9.6,1.1c-3-1.6-5.8-3-10.9,1c-4.5,3.6-4.8,6.3-5,9c-0.4,4.2-1.3,7.4-9.5,9.1c-7.8,1.7-10.9,0.9-13.8-4 c-3.8-6.3-8.2-9.6-13.1-8.5c-11.8,2.8-17.2,17.4-18.9,21.3c-7.9,18.2-15.5,24.8-27.4,17.5c-1.8-1.1-6.9-14-18.3,0.8 c-21,27.4-33.8,11.9-36.9,27.5c39.4,2.7,119.1-19.7,156.2-45.7C590.2,341.6,590.4,341.4,590.5,341.1z" class="st58"/><g><linearGradient id="SVGID_52_" x1="371.567" x2="375.871" y1="472.457" y2="369.165" gradientUnits="userSpaceOnUse"><stop offset="0" style="stop-color:#0f0e13"/><stop offset="1" style="stop-color:#363644"/></linearGradient><path d="M329.1,443.6l39-22.9c2.4-1.4,5.4-1.4,7.9,0l40.1,23.2c2,1.1,2,4,0,5.1l-39.4,22.6c-2.4,1.4-5.4,1.4-7.8,0 l-39.8-22.9C327.2,447.5,327.2,444.7,329.1,443.6z" class="st59"/><g><g class="st5"><linearGradient id="SVGID_53_" x1="1651.359" x2="1676.157" y1="424.797" y2="467.749" gradientTransform="matrix(1 0 0 1 -1290.9347 0)" gradientUnits="userSpaceOnUse"><stop offset="0" style="stop-color:#0e121d;stop-opacity:.1"/><stop offset=".333" style="stop-color:#181b27;stop-opacity:.3995"/><stop offset=".894" style="stop-color:#323340;stop-opacity:.9045"/><stop offset="1" style="stop-color:#383846"/></linearGradient><path d="M373.1,473.3c-1.4,0-2.9-0.4-4.1-1.1l-40-23c-1-0.6-1.7-1.7-1.7-2.9c0-1.2,0.6-2.3,1.7-2.9l39.2-23.1 c2.6-1.5,5.8-1.5,8.3,0l40.4,23.4c1.1,0.6,1.7,1.7,1.7,2.9c0,1.2-0.6,2.3-1.7,2.9l-39.6,22.7C375.9,473,374.5,473.3,373.1,473.3 z M372.4,420c-1.3,0-2.6,0.3-3.8,1l-39.2,23.1c-0.8,0.5-1.3,1.3-1.3,2.2c0,0.9,0.5,1.7,1.3,2.2l40,23c2.3,1.3,5.1,1.3,7.4,0 l39.6-22.7c0.8-0.5,1.3-1.3,1.3-2.2c0-0.9-0.5-1.8-1.3-2.2L376.1,421C374.9,420.3,373.6,420,372.4,420z" class="st60"/></g><g class="st5"><linearGradient id="SVGID_54_" x1="406.363" x2="430.071" y1="453.334" y2="494.399" gradientUnits="userSpaceOnUse"><stop offset="0" style="stop-color:#383846"/><stop offset=".106" style="stop-color:#323340;stop-opacity:.9045"/><stop offset=".667" style="stop-color:#181b27;stop-opacity:.3995"/><stop offset="1" style="stop-color:#0e121d;stop-opacity:.1"/></linearGradient><polygon points="418.6 501 417.6 501 417.6 448.3 418.6 446.3" class="st61"/></g><g class="st5"><linearGradient id="SVGID_55_" x1="366.853" x2="379.858" y1="476.353" y2="498.878" gradientUnits="userSpaceOnUse"><stop offset="0" style="stop-color:#383846"/><stop offset=".106" style="stop-color:#323340;stop-opacity:.9045"/><stop offset=".667" style="stop-color:#181b27;stop-opacity:.3995"/><stop offset="1" style="stop-color:#0e121d;stop-opacity:.1"/></linearGradient><rect width="1" height="29.5" x="372.9" y="472.9" class="st62"/></g></g></g><linearGradient id="SVGID_56_" x1="344.013" x2="554.437" y1="272.949" y2="247.357" gradientUnits="userSpaceOnUse"><stop offset="0" style="stop-color:#22adf6"/><stop offset=".308" style="stop-color:#5c7ff0"/><stop offset=".628" style="stop-color:#9154ea"/><stop offset=".869" style="stop-color:#b239e6"/><stop offset="1" style="stop-color:#bf2fe5"/></linearGradient><path d="M397.6,276.3c-12-6.9-12-18.1-0.1-25c11.9-6.9,31.2-6.9,43.2,0c12,6.9,12,18.1,0.1,25 C428.9,283.2,409.5,283.2,397.6,276.3L397.6,276.3z M475.5,231c-31.4-18.1-82.1-18.1-113.3,0c-31.2,18.1-31,47.5,0.4,65.6 c31.4,18.1,82.1,18.1,113.3,0C507.1,278.5,506.9,249.1,475.5,231L475.5,231z" class="st63"/><radialGradient id="SVGID_57_" cx="419.102" cy="263.816" r="81.299" gradientTransform="matrix(1 8.256974e-03 -4.632554e-03 0.561 1.2364 112.3474)" gradientUnits="userSpaceOnUse"><stop offset="0" style="stop-color:#0f0e13"/><stop offset="1" style="stop-color:#0f0e13;stop-opacity:0"/></radialGradient><path d="M475.5,231c-31.4-18.1-82.1-18.1-113.3,0c-31.2,18.1-31,47.5,0.4,65.6c31.4,18.1,82.1,18.1,113.2,0 C507.1,278.5,506.9,249.1,475.5,231L475.5,231z" class="st64"/><linearGradient id="SVGID_58_" x1="390.459" x2="470.725" y1="267.3" y2="257.538" gradientUnits="userSpaceOnUse"><stop offset="0" style="stop-color:#22adf6"/><stop offset=".308" style="stop-color:#5c7ff0"/><stop offset=".628" style="stop-color:#9154ea"/><stop offset=".869" style="stop-color:#b239e6"/><stop offset="1" style="stop-color:#bf2fe5"/></linearGradient><path d="M440.6,251.3c-12-6.9-31.3-6.9-43.2,0c-11.9,6.9-11.8,18.1,0.1,25c12,6.9,31.3,6.9,43.2,0 C452.7,269.4,452.6,258.2,440.6,251.3L440.6,251.3z" class="st65"/><radialGradient id="SVGID_59_" cx="419.102" cy="263.816" r="41.37" gradientTransform="matrix(1 8.256974e-03 -4.632554e-03 0.561 1.2364 112.3474)" gradientUnits="userSpaceOnUse"><stop offset="0" style="stop-color:#0f0e13"/><stop offset="1" style="stop-color:#0f0e13;stop-opacity:0"/></radialGradient><path d="M440.6,251.3c-12-6.9-31.3-6.9-43.2,0c-11.9,6.9-11.8,18.1,0.1,25c12,6.9,31.3,6.9,43.2,0 C452.7,269.4,452.6,258.2,440.6,251.3L440.6,251.3z" class="st66"/><linearGradient id="SVGID_60_" x1="407.181" x2="440.589" y1="265.267" y2="261.204" gradientUnits="userSpaceOnUse"><stop offset=".096" style="stop-color:#22adf6"/><stop offset=".223" style="stop-color:#26a9f6"/><stop offset=".361" style="stop-color:#339ff4"/><stop offset=".503" style="stop-color:#498ef2"/><stop offset=".649" style="stop-color:#6775ee"/><stop offset=".798" style="stop-color:#8e56ea"/><stop offset=".947" style="stop-color:#bd30e5"/><stop offset=".952" style="stop-color:#bf2fe5"/></linearGradient><path d="M428.1,258.6c-5-2.9-13-2.9-18,0c-4.9,2.9-4.9,7.5,0.1,10.4c5,2.9,13,2.9,18,0 C433.1,266.1,433,261.5,428.1,258.6L428.1,258.6z" class="st67"/><linearGradient id="SVGID_61_" x1="419.103" x2="419.103" y1="96.171" y2="267.345" gradientUnits="userSpaceOnUse"><stop offset="0" style="stop-color:#bf2fe5;stop-opacity:0"/><stop offset=".062" style="stop-color:#b537e6;stop-opacity:6.223881e-02"/><stop offset=".711" style="stop-color:#4c8cf1;stop-opacity:.7109"/><stop offset="1" style="stop-color:#22adf6"/></linearGradient><path d="M419.1,265.6c-1.4,0-2.5-1.1-2.5-2.5V98.9c0-1.4,1.1-2.5,2.5-2.5s2.5,1.1,2.5,2.5v164.3 C421.6,264.5,420.5,265.6,419.1,265.6z" class="st68"/><g><linearGradient id="SVGID_62_" x1="429.663" x2="619.918" y1="311.786" y2="311.786" gradientUnits="userSpaceOnUse"><stop offset="0" style="stop-color:#22adf6"/><stop offset=".14" style="stop-color:#2aa7f5;stop-opacity:.8406"/><stop offset=".357" style="stop-color:#4095f3;stop-opacity:.5935"/><stop offset=".621" style="stop-color:#6379ef;stop-opacity:.2915"/><stop offset=".877" style="stop-color:#8c58eb;stop-opacity:0"/></linearGradient><path d="M436.3,389.8c-1.5,0-3.1-0.1-4.9-0.3c-1.1-0.1-1.9-1.1-1.7-2.2c0.1-1.1,1.2-1.9,2.2-1.7 c13.8,1.8,18.5-4.7,23-10.9c1.9-2.6,3.6-5,6-6.7c2.6-1.8,5.4-1.6,8.2-1.3c5.5,0.5,11.1,1,17.8-14.4c1.7-3.9,2.5-7.7,3.3-11.3 c1.9-8.6,3.7-16.7,16.7-21.6c10.9-4.2,15.3,4.8,18.8,12.1c3.2,6.6,5.4,10.6,9.9,9.6c5.8-1.3,5.9-2.6,6.2-5.4 c0.3-3.1,0.7-7.2,6.6-11.9c7.3-5.8,12.2-3.2,15.4-1.5c2.6,1.4,3.2,1.5,4.4,0c6-7,11.5-5.1,15.8-3.6c3.7,1.3,6.3,2.2,9.6-0.9 c3.5-3.3,2.6-6.1,0.8-10.9c-1.5-4-3.5-9.1,0.3-14.2c3.7-5,8.4-4.9,11.2-4.8c0.7,0,1.6,0.1,2,0c0.1-0.3,0.2-1.2-0.5-3.6 c-0.9-3.7-2.1-6.8-3.2-9.5c-1.7-4.4-2.9-7.6-1.6-10.2c0.7-1.4,2-2.3,3.9-2.8c3.8-1,8.5-4.4,9.3-7.8c0.4-1.7-0.2-3.2-1.8-4.8 c-6.1-5.6-9.4-10.2-6.2-14.5c0.7-0.9,1.9-1.1,2.8-0.4c0.9,0.7,1.1,1.9,0.4,2.8c-0.5,0.7-1.8,2.3,5.7,9.2c3.5,3.2,3.6,6.5,3,8.6 c-1.3,5.2-7.2,9.4-12.1,10.7c-0.4,0.1-1.2,0.4-1.4,0.7c-0.5,1,0.7,4,1.8,6.9c1,2.7,2.4,6.1,3.3,10c0.9,3.7,0.8,5.7-0.3,7.1 c-1.3,1.6-3.3,1.5-5.2,1.5c-2.7-0.1-5.4-0.2-7.8,3.1c-2.5,3.3-1.2,6.6,0.2,10.4c1.7,4.4,3.8,10-1.8,15.2c-5,4.7-9.8,3-13.6,1.7 c-4.2-1.5-7.3-2.5-11.5,2.4c-3.4,4.1-6.9,2.3-9.3,1c-3-1.6-5.8-3.1-11.1,1.1c-4.6,3.6-4.9,6.4-5.1,9.2c-0.4,4.2-1.3,7.2-9.3,9 c-7.8,1.7-11.3-5.5-14.4-11.8c-3.9-8-6.6-12.8-13.7-10.1c-11,4.2-12.4,10.3-14.2,18.7c-0.8,3.6-1.7,7.8-3.6,12 c-7.8,18-15.9,17.3-21.8,16.8c-2.6-0.2-4.2-0.3-5.5,0.6c-1.8,1.2-3.3,3.4-5,5.7C454.2,382.4,448.9,389.8,436.3,389.8z" class="st69"/></g><g><linearGradient id="SVGID_63_" x1="507.891" x2="507.891" y1="322.181" y2="382.693" gradientUnits="userSpaceOnUse"><stop offset="0" style="stop-color:#22adf6"/><stop offset=".37" style="stop-color:#4c8cf2;stop-opacity:.5829"/><stop offset=".888" style="stop-color:#8c58eb;stop-opacity:0"/></linearGradient><path d="M507.9,325.8c-0.2,0-0.4-0.2-0.4-0.4v-1.6c0-0.2,0.2-0.4,0.4-0.4s0.4,0.2,0.4,0.4v1.6 C508.3,325.6,508.1,325.8,507.9,325.8z" class="st70"/><linearGradient id="SVGID_64_" x1="507.891" x2="507.891" y1="322.181" y2="382.693" gradientUnits="userSpaceOnUse"><stop offset="0" style="stop-color:#22adf6"/><stop offset=".37" style="stop-color:#4c8cf2;stop-opacity:.5829"/><stop offset=".888" style="stop-color:#8c58eb;stop-opacity:0"/></linearGradient><path d="M507.9,371.6c-0.2,0-0.4-0.2-0.4-0.4v-3.3c0-0.2,0.2-0.4,0.4-0.4s0.4,0.2,0.4,0.4v3.3 C508.3,371.4,508.1,371.6,507.9,371.6z M507.9,365.1c-0.2,0-0.4-0.2-0.4-0.4v-3.3c0-0.2,0.2-0.4,0.4-0.4s0.4,0.2,0.4,0.4v3.3 C508.3,364.9,508.1,365.1,507.9,365.1z M507.9,358.5c-0.2,0-0.4-0.2-0.4-0.4v-3.3c0-0.2,0.2-0.4,0.4-0.4s0.4,0.2,0.4,0.4v3.3 C508.3,358.3,508.1,358.5,507.9,358.5z M507.9,352c-0.2,0-0.4-0.2-0.4-0.4v-3.3c0-0.2,0.2-0.4,0.4-0.4s0.4,0.2,0.4,0.4v3.3 C508.3,351.8,508.1,352,507.9,352z M507.9,345.4c-0.2,0-0.4-0.2-0.4-0.4v-3.3c0-0.2,0.2-0.4,0.4-0.4s0.4,0.2,0.4,0.4v3.3 C508.3,345.2,508.1,345.4,507.9,345.4z M507.9,338.9c-0.2,0-0.4-0.2-0.4-0.4v-3.3c0-0.2,0.2-0.4,0.4-0.4s0.4,0.2,0.4,0.4v3.3 C508.3,338.7,508.1,338.9,507.9,338.9z M507.9,332.3c-0.2,0-0.4-0.2-0.4-0.4v-3.3c0-0.2,0.2-0.4,0.4-0.4s0.4,0.2,0.4,0.4v3.3 C508.3,332.1,508.1,332.3,507.9,332.3z" class="st71"/><linearGradient id="SVGID_65_" x1="507.891" x2="507.891" y1="322.181" y2="382.693" gradientUnits="userSpaceOnUse"><stop offset="0" style="stop-color:#22adf6"/><stop offset=".37" style="stop-color:#4c8cf2;stop-opacity:.5829"/><stop offset=".888" style="stop-color:#8c58eb;stop-opacity:0"/></linearGradient><path d="M507.9,376.5c-0.2,0-0.4-0.2-0.4-0.4v-1.6c0-0.2,0.2-0.4,0.4-0.4s0.4,0.2,0.4,0.4v1.6 C508.3,376.3,508.1,376.5,507.9,376.5z" class="st72"/></g><g><linearGradient id="SVGID_66_" x1="539.278" x2="539.278" y1="344.07" y2="404.583" gradientUnits="userSpaceOnUse"><stop offset="0" style="stop-color:#22adf6"/><stop offset=".37" style="stop-color:#4c8cf2;stop-opacity:.5829"/><stop offset=".888" style="stop-color:#8c58eb;stop-opacity:0"/></linearGradient><path d="M539.3,347.6c-0.2,0-0.4-0.2-0.4-0.4v-1.6c0-0.2,0.2-0.4,0.4-0.4s0.4,0.2,0.4,0.4v1.6 C539.7,347.5,539.5,347.6,539.3,347.6z" class="st73"/><linearGradient id="SVGID_67_" x1="539.278" x2="539.278" y1="347.714" y2="371.691" gradientUnits="userSpaceOnUse"><stop offset="0" style="stop-color:#22adf6"/><stop offset=".37" style="stop-color:#4c8cf2;stop-opacity:.5829"/><stop offset=".888" style="stop-color:#8c58eb;stop-opacity:0"/></linearGradient><path d="M539.3,367.3c-0.2,0-0.4-0.2-0.4-0.4v-3.3c0-0.2,0.2-0.4,0.4-0.4s0.4,0.2,0.4,0.4v3.3 C539.7,367.1,539.5,367.3,539.3,367.3z M539.3,360.8c-0.2,0-0.4-0.2-0.4-0.4v-3.3c0-0.2,0.2-0.4,0.4-0.4s0.4,0.2,0.4,0.4v3.3 C539.7,360.6,539.5,360.8,539.3,360.8z M539.3,354.2c-0.2,0-0.4-0.2-0.4-0.4v-3.3c0-0.2,0.2-0.4,0.4-0.4s0.4,0.2,0.4,0.4v3.3 C539.7,354,539.5,354.2,539.3,354.2z" class="st74"/></g><g><radialGradient id="SVGID_68_" cx="427.12" cy="387.512" r="27.553" gradientTransform="matrix(0.604 1.066678e-02 -3.879579e-03 0.6021 170.9361 149.6359)" gradientUnits="userSpaceOnUse"><stop offset="0" style="stop-color:#22adf6"/><stop offset="1" style="stop-color:#22adf6;stop-opacity:0"/></radialGradient><path d="M441.8,373.7c-8-7.6-20.9-7.6-28.8,0c-7.9,7.6-7.9,20,0.1,27.6c8,7.6,20.9,7.6,28.8,0 C449.8,393.7,449.7,381.3,441.8,373.7L441.8,373.7z" class="st75"/><radialGradient id="SVGID_69_" cx="427.12" cy="387.512" r="8.664" gradientTransform="matrix(0.604 0 0 0.5722 169.418 165.7625)" gradientUnits="userSpaceOnUse"><stop offset="0" style="stop-color:#fff"/><stop offset="1" style="stop-color:#fff;stop-opacity:0"/></radialGradient><path d="M431.3,383.8c-2.1-2-5.6-2-7.7,0c-2.1,2-2.1,5.4,0,7.4c2.1,2,5.6,2,7.7,0 C433.4,389.2,433.4,385.9,431.3,383.8L431.3,383.8z" class="st76"/></g><g><radialGradient id="SVGID_70_" cx="507.75" cy="320.764" r="7.84" gradientUnits="userSpaceOnUse"><stop offset="0" style="stop-color:#190b2e"/><stop offset=".12" style="stop-color:#1a153b;stop-opacity:.9627"/><stop offset=".341" style="stop-color:#1d2f5c;stop-opacity:.8944"/><stop offset=".637" style="stop-color:#235992;stop-opacity:.8025"/><stop offset=".995" style="stop-color:#2a93dc;stop-opacity:.6917"/><stop offset="1" style="stop-color:#2a94dd;stop-opacity:.69"/></radialGradient><circle cx="507.7" cy="320.8" r="7.8" class="st77"/><radialGradient id="SVGID_71_" cx="507.75" cy="320.764" r="2.991" gradientUnits="userSpaceOnUse"><stop offset="0" style="stop-color:#0f0e13"/><stop offset=".108" style="stop-color:#111620;stop-opacity:.9673"/><stop offset=".307" style="stop-color:#152c41;stop-opacity:.9074"/><stop offset=".574" style="stop-color:#1d4f77;stop-opacity:.8268"/><stop offset=".896" style="stop-color:#287fc1;stop-opacity:.7298"/><stop offset=".994" style="stop-color:#2b8fd9;stop-opacity:.7"/></radialGradient><circle cx="507.7" cy="320.8" r="3" class="st78"/><circle cx="507.7" cy="320.8" r="1.2" class="st79"/></g><g class="st80"><linearGradient id="SVGID_72_" x1="548.875" x2="557.401" y1="331.103" y2="331.103" gradientUnits="userSpaceOnUse"><stop offset="0" style="stop-color:#22adf6"/><stop offset=".417" style="stop-color:#4c8cf2;stop-opacity:.5829"/><stop offset="1" style="stop-color:#8c58eb;stop-opacity:0"/></linearGradient><path d="M557.4,329.6l0-0.6c0-0.7-0.7-1.1-1.3-0.7l-6.7,3.9c-0.3,0.2-0.5,0.5-0.5,0.9l0,0.2c0,0.7,0.7,1.1,1.3,0.7 l7.1-4.1C557.4,329.8,557.4,329.7,557.4,329.6z" class="st81"/><linearGradient id="SVGID_73_" x1="549.182" x2="558.511" y1="338.249" y2="338.249" gradientUnits="userSpaceOnUse"><stop offset="0" style="stop-color:#22adf6"/><stop offset=".417" style="stop-color:#4c8cf2;stop-opacity:.5829"/><stop offset="1" style="stop-color:#8c58eb;stop-opacity:0"/></linearGradient><path d="M558.5,336L558.5,336c0-0.7-0.7-1.1-1.3-0.8l-7.5,4.3c-0.4,0.2-0.6,0.6-0.6,1l0,0.1c0,0.7,0.7,1.1,1.3,0.7 l7.5-4.3C558.3,336.8,558.5,336.4,558.5,336z" class="st82"/><linearGradient id="SVGID_74_" x1="548.948" x2="561.96" y1="333.656" y2="333.656" gradientUnits="userSpaceOnUse"><stop offset="0" style="stop-color:#22adf6"/><stop offset=".417" style="stop-color:#4c8cf2;stop-opacity:.5829"/><stop offset="1" style="stop-color:#8c58eb;stop-opacity:0"/></linearGradient><path d="M562,330.4l0-0.2c0-0.7-0.7-1.1-1.3-0.7l-11.1,6.4c-0.4,0.2-0.6,0.7-0.6,1.1l0,0c0,0.7,0.7,1.1,1.3,0.7 l11.2-6.5C561.8,331.1,562,330.8,562,330.4z" class="st83"/></g><g><linearGradient id="SVGID_75_" x1="130.508" x2="625.348" y1="355.029" y2="355.029" gradientUnits="userSpaceOnUse"><stop offset="0" style="stop-color:#22adf6;stop-opacity:.3"/><stop offset=".402" style="stop-color:#22adf6"/><stop offset=".617" style="stop-color:#4c8cf2;stop-opacity:.5829"/><stop offset=".916" style="stop-color:#8c58eb;stop-opacity:0"/></linearGradient><path d="M420,432.6c-77.3,0-150-17.4-204.9-49.1c-48-27.7-78.1-64.6-84.6-103.7c-0.2-1.1,0.6-2.1,1.6-2.3 c1.1-0.2,2.1,0.6,2.3,1.6c6.3,37.9,35.7,73.8,82.7,100.9c112.1,64.7,293.8,64.7,405.2,0c1-0.6,2.2-0.2,2.7,0.7 c0.6,1,0.2,2.2-0.7,2.7C569.8,415.2,497.3,432.6,420,432.6C420,432.6,420,432.6,420,432.6z" class="st84"/></g><linearGradient id="SVGID_76_" x1="432.678" x2="440.988" y1="387.591" y2="387.591" gradientUnits="userSpaceOnUse"><stop offset="0" style="stop-color:#22adf6"/><stop offset=".37" style="stop-color:#4c8cf2;stop-opacity:.5829"/><stop offset=".888" style="stop-color:#8c58eb;stop-opacity:0"/></linearGradient><path d="M441,387.4c-2.4,0.4-5.1,0.5-8.3,0.2C435.4,387.6,438.2,387.5,441,387.4z" class="st85"/><path d="M432.7,387.6c3.2,0.3,5.9,0.2,8.3-0.2C438.2,387.5,435.4,387.6,432.7,387.6z" class="st86"/><g><linearGradient id="SVGID_77_" x1="480.574" x2="480.574" y1="367.678" y2="428.191" gradientUnits="userSpaceOnUse"><stop offset="0" style="stop-color:#22adf6"/><stop offset=".37" style="stop-color:#4c8cf2;stop-opacity:.5829"/><stop offset=".888" style="stop-color:#8c58eb;stop-opacity:0"/></linearGradient><path d="M480.6,371.3c-0.2,0-0.4-0.2-0.4-0.4v-1.6c0-0.2,0.2-0.4,0.4-0.4s0.4,0.2,0.4,0.4v1.6 C481,371.1,480.8,371.3,480.6,371.3z" class="st87"/><linearGradient id="SVGID_78_" x1="480.574" x2="480.574" y1="372.234" y2="387.076" gradientUnits="userSpaceOnUse"><stop offset="0" style="stop-color:#22adf6"/><stop offset=".37" style="stop-color:#4c8cf2;stop-opacity:.5829"/><stop offset=".888" style="stop-color:#8c58eb;stop-opacity:0"/></linearGradient><path d="M480.6,384.4c-0.2,0-0.4-0.2-0.4-0.4v-3.3c0-0.2,0.2-0.4,0.4-0.4s0.4,0.2,0.4,0.4v3.3 C481,384.2,480.8,384.4,480.6,384.4z M480.6,377.8c-0.2,0-0.4-0.2-0.4-0.4v-3.3c0-0.2,0.2-0.4,0.4-0.4s0.4,0.2,0.4,0.4v3.3 C481,377.6,480.8,377.8,480.6,377.8z" class="st88"/></g><g class="st89"><linearGradient id="SVGID_79_" x1="584.594" x2="584.594" y1="322.392" y2="382.904" gradientUnits="userSpaceOnUse"><stop offset="0" style="stop-color:#22adf6"/><stop offset=".37" style="stop-color:#4c8cf2;stop-opacity:.5829"/><stop offset=".888" style="stop-color:#8c58eb;stop-opacity:0"/></linearGradient><path d="M584.6,326c-0.2,0-0.4-0.2-0.4-0.4v-1.6c0-0.2,0.2-0.4,0.4-0.4s0.4,0.2,0.4,0.4v1.6 C585,325.8,584.8,326,584.6,326z" class="st90"/><linearGradient id="SVGID_80_" x1="584.594" x2="584.594" y1="325.125" y2="358.235" gradientUnits="userSpaceOnUse"><stop offset="0" style="stop-color:#22adf6"/><stop offset=".37" style="stop-color:#4c8cf2;stop-opacity:.5829"/><stop offset=".888" style="stop-color:#8c58eb;stop-opacity:0"/></linearGradient><path d="M584.6,352.2c-0.2,0-0.4-0.2-0.4-0.4v-3.3c0-0.2,0.2-0.4,0.4-0.4s0.4,0.2,0.4,0.4v3.3 C585,352,584.8,352.2,584.6,352.2z M584.6,345.6c-0.2,0-0.4-0.2-0.4-0.4v-3.3c0-0.2,0.2-0.4,0.4-0.4s0.4,0.2,0.4,0.4v3.3 C585,345.4,584.8,345.6,584.6,345.6z M584.6,339.1c-0.2,0-0.4-0.2-0.4-0.4v-3.3c0-0.2,0.2-0.4,0.4-0.4s0.4,0.2,0.4,0.4v3.3 C585,338.9,584.8,339.1,584.6,339.1z M584.6,332.5c-0.2,0-0.4-0.2-0.4-0.4v-3.3c0-0.2,0.2-0.4,0.4-0.4s0.4,0.2,0.4,0.4v3.3 C585,332.3,584.8,332.5,584.6,332.5z" class="st91"/></g><g class="st5"><linearGradient id="SVGID_81_" x1="563.467" x2="563.467" y1="324.562" y2="357.673" gradientUnits="userSpaceOnUse"><stop offset="0" style="stop-color:#22adf6"/><stop offset=".37" style="stop-color:#4c8cf2;stop-opacity:.5829"/><stop offset=".888" style="stop-color:#8c58eb;stop-opacity:0"/></linearGradient><path d="M563.5,351.6c-0.2,0-0.4-0.2-0.4-0.4v-3.3c0-0.2,0.2-0.4,0.4-0.4s0.4,0.2,0.4,0.4v3.3 C563.9,351.4,563.7,351.6,563.5,351.6z M563.5,345.1c-0.2,0-0.4-0.2-0.4-0.4v-3.3c0-0.2,0.2-0.4,0.4-0.4s0.4,0.2,0.4,0.4v3.3 C563.9,344.9,563.7,345.1,563.5,345.1z M563.5,338.5c-0.2,0-0.4-0.2-0.4-0.4v-3.3c0-0.2,0.2-0.4,0.4-0.4s0.4,0.2,0.4,0.4v3.3 C563.9,338.3,563.7,338.5,563.5,338.5z M563.5,332c-0.2,0-0.4-0.2-0.4-0.4v-3.3c0-0.2,0.2-0.4,0.4-0.4s0.4,0.2,0.4,0.4v3.3 C563.9,331.8,563.7,332,563.5,332z" class="st92"/><linearGradient id="SVGID_82_" x1="563.467" x2="563.467" y1="308.726" y2="369.238" gradientUnits="userSpaceOnUse"><stop offset="0" style="stop-color:#22adf6"/><stop offset=".37" style="stop-color:#4c8cf2;stop-opacity:.5829"/><stop offset=".888" style="stop-color:#8c58eb;stop-opacity:0"/></linearGradient><path d="M563.5,363.1c-0.2,0-0.4-0.2-0.4-0.4V361c0-0.2,0.2-0.4,0.4-0.4s0.4,0.2,0.4,0.4v1.6 C563.9,362.9,563.7,363.1,563.5,363.1z" class="st93"/></g><g><linearGradient id="SVGID_83_" x1="143.875" x2="449.39" y1="282.95" y2="453.679" gradientUnits="userSpaceOnUse"><stop offset="0" style="stop-color:#22adf6;stop-opacity:.1"/><stop offset=".374" style="stop-color:#22adf6"/><stop offset=".635" style="stop-color:#4c8cf2;stop-opacity:.5829"/><stop offset="1" style="stop-color:#8c58eb;stop-opacity:0"/></linearGradient><path d="M494.2,422.7c-95.5,14.8-201.9,0.4-276.9-42.9c-45.8-26.5-74.9-61.2-82.1-98.2c0.3,0,0.7-0.1,1-0.1 c0.8,1.6,1.9,2.6,3.1,3.3c0,0,0,0,0,0c2.5,1.8,5.6,2.2,8.4,2.5c4.4,0.5,9,1.1,12.8,6.3c5.5,7.6,11.1,6.2,15.9,5 c4.6-1.2,8.9-2.2,14.6,3.1c6.6,6.1,6,12.5,5.5,19.3c-0.5,5.5-0.9,11.2,3,16c4.2,5.2,8.1,4.6,11.9,4c4.2-0.7,8.9-1.4,17.1,5.2 c2.7,2.2,4.2,4.8,5.7,7.6c2.2,3.9,4.5,8,10.2,10.7c1.5,0.8,3.3,1.5,5.5,2c1.7,0.4,3.3,0.5,4.8,0.3c7.8-0.1,12.1-5.6,16.4-10.9 c5-6.3,9.8-12.2,20.5-10.8c14.5,2,16.9,9,21.3,21.8c1.3,3.9,2.8,8.2,4.9,12.9c11.2,25.8,22.6,24.8,31,24c3.5-0.3,6.4-0.6,8.7,1.1 c14.8,10.3,29.6,14,44.2,10.9c9.9-2.1,20.4-1.7,30.3,1.1c9.8,2.8,22,5.7,32.5,6.7c2.4,0.4,4.7,0.6,6.9,0.6c2,0,3.8-0.1,5.5-0.3 C483.1,423,489.1,422.7,494.2,422.7z" class="st94"/><g><linearGradient id="SVGID_84_" x1="325.078" x2="739.189" y1="345.316" y2="345.316" gradientTransform="matrix(-1 0 0 1 838.2037 0)" gradientUnits="userSpaceOnUse"><stop offset="0" style="stop-color:#8c58eb;stop-opacity:0"/><stop offset=".348" style="stop-color:#4c8cf2;stop-opacity:.5829"/><stop offset=".598" style="stop-color:#22adf6"/><stop offset="1" style="stop-color:#22adf6;stop-opacity:0"/></linearGradient><path d="M471.2,424.1c-11.5,0-27.3-3.7-39.4-7.1c-10-2.8-20.5-3.2-30.3-1.1c-14.5,3.1-29.4-0.6-44.2-10.9 c-2.3-1.6-5.1-1.4-8.7-1.1c-8.3,0.7-19.8,1.7-31-24c-2-4.7-3.5-9.1-4.9-12.9c-4.4-12.8-6.8-19.8-21.3-21.8 c-10.7-1.5-15.5,4.5-20.5,10.8c-5,6.3-10.2,12.8-21.2,10.4c-10-2.2-12.9-7.4-15.7-12.5c-1.6-2.8-3-5.4-5.7-7.6 c-8.2-6.6-13-5.9-17.1-5.2c-3.7,0.6-7.6,1.2-11.9-4c-3.9-4.8-3.5-10.5-3-16c0.6-6.8,1.1-13.2-5.5-19.3c-5.7-5.3-10-4.2-14.6-3.1 c-4.9,1.2-10.4,2.6-15.9-5c-3.8-5.2-8.3-5.7-12.7-6.3c-5.6-0.7-11.9-1.5-13.4-12.7c-0.5-3.6-11.1-3.5-18.8-3.4 c-5.8,0.1-11.3,0.1-15-0.9c-1.1-0.3-1.7-1.4-1.4-2.5c0.3-1.1,1.4-1.7,2.5-1.4c3.2,0.9,8.6,0.8,13.9,0.8 c10.8-0.1,21.9-0.2,22.8,6.9c1.1,8.2,4.4,8.6,9.9,9.2c4.8,0.6,10.7,1.3,15.5,7.9c4,5.4,7.1,4.6,11.7,3.5c4.9-1.2,11-2.8,18.3,4 c8,7.5,7.3,15.5,6.7,22.6c-0.4,5.1-0.8,9.5,2.1,13.1c2.8,3.4,4.7,3.1,8.1,2.6c4.5-0.7,10.7-1.7,20.3,6.1c3.3,2.7,5,5.7,6.7,8.7 c2.6,4.7,4.9,8.7,13.1,10.5c8.5,1.9,12.3-2.9,17.2-9c5.2-6.6,11.2-14,24.2-12.2c16.9,2.3,20.1,11.6,24.5,24.5 c1.3,3.8,2.8,8.1,4.8,12.6c10.1,23.1,19,22.3,26.9,21.6c3.8-0.3,7.8-0.7,11.3,1.8c13.8,9.7,27.6,13.1,41.1,10.3 c10.5-2.2,21.7-1.8,32.2,1.2c13.7,3.9,32.3,8.2,43.2,6.7c19.6-2.7,34.7-0.1,35.4,0c1.1,0.2,1.8,1.2,1.6,2.3 c-0.2,1.1-1.2,1.8-2.3,1.6c-0.2,0-15.1-2.6-34.1,0C475,424,473.2,424.1,471.2,424.1z" class="st95"/></g><g><linearGradient id="SVGID_85_" x1="291.374" x2="291.374" y1="350.551" y2="411.064" gradientUnits="userSpaceOnUse"><stop offset="0" style="stop-color:#22adf6"/><stop offset=".37" style="stop-color:#4c8cf2;stop-opacity:.5829"/><stop offset=".888" style="stop-color:#8c58eb;stop-opacity:0"/></linearGradient><path d="M291.4,354.1c-0.2,0-0.4-0.2-0.4-0.4v-1.6c0-0.2,0.2-0.4,0.4-0.4s0.4,0.2,0.4,0.4v1.6 C291.8,353.9,291.6,354.1,291.4,354.1z" class="st96"/><linearGradient id="SVGID_86_" x1="291.374" x2="291.374" y1="350.551" y2="411.064" gradientUnits="userSpaceOnUse"><stop offset="0" style="stop-color:#22adf6"/><stop offset=".37" style="stop-color:#4c8cf2;stop-opacity:.5829"/><stop offset=".888" style="stop-color:#8c58eb;stop-opacity:0"/></linearGradient><path d="M291.4,400c-0.2,0-0.4-0.2-0.4-0.4v-3.3c0-0.2,0.2-0.4,0.4-0.4s0.4,0.2,0.4,0.4v3.3 C291.8,399.8,291.6,400,291.4,400z M291.4,393.4c-0.2,0-0.4-0.2-0.4-0.4v-3.3c0-0.2,0.2-0.4,0.4-0.4s0.4,0.2,0.4,0.4v3.3 C291.8,393.3,291.6,393.4,291.4,393.4z M291.4,386.9c-0.2,0-0.4-0.2-0.4-0.4v-3.3c0-0.2,0.2-0.4,0.4-0.4s0.4,0.2,0.4,0.4v3.3 C291.8,386.7,291.6,386.9,291.4,386.9z M291.4,380.3c-0.2,0-0.4-0.2-0.4-0.4v-3.3c0-0.2,0.2-0.4,0.4-0.4s0.4,0.2,0.4,0.4v3.3 C291.8,380.2,291.6,380.3,291.4,380.3z M291.4,373.8c-0.2,0-0.4-0.2-0.4-0.4v-3.3c0-0.2,0.2-0.4,0.4-0.4s0.4,0.2,0.4,0.4v3.3 C291.8,373.6,291.6,373.8,291.4,373.8z M291.4,367.2c-0.2,0-0.4-0.2-0.4-0.4v-3.3c0-0.2,0.2-0.4,0.4-0.4s0.4,0.2,0.4,0.4v3.3 C291.8,367,291.6,367.2,291.4,367.2z M291.4,360.7c-0.2,0-0.4-0.2-0.4-0.4V357c0-0.2,0.2-0.4,0.4-0.4s0.4,0.2,0.4,0.4v3.3 C291.8,360.5,291.6,360.7,291.4,360.7z" class="st97"/><linearGradient id="SVGID_87_" x1="291.374" x2="291.374" y1="350.551" y2="411.064" gradientUnits="userSpaceOnUse"><stop offset="0" style="stop-color:#22adf6"/><stop offset=".37" style="stop-color:#4c8cf2;stop-opacity:.5829"/><stop offset=".888" style="stop-color:#8c58eb;stop-opacity:0"/></linearGradient><path d="M291.4,404.9c-0.2,0-0.4-0.2-0.4-0.4v-1.6c0-0.2,0.2-0.4,0.4-0.4s0.4,0.2,0.4,0.4v1.6 C291.8,404.7,291.6,404.9,291.4,404.9z" class="st98"/></g><g><linearGradient id="SVGID_88_" x1="202.61" x2="202.61" y1="339.938" y2="400.451" gradientUnits="userSpaceOnUse"><stop offset="0" style="stop-color:#22adf6"/><stop offset=".37" style="stop-color:#4c8cf2;stop-opacity:.5829"/><stop offset=".888" style="stop-color:#8c58eb;stop-opacity:0"/></linearGradient><path d="M202.6,343.5c-0.2,0-0.4-0.2-0.4-0.4v-1.6c0-0.2,0.2-0.4,0.4-0.4s0.4,0.2,0.4,0.4v1.6 C203,343.3,202.8,343.5,202.6,343.5z" class="st99"/><linearGradient id="SVGID_89_" x1="202.61" x2="202.61" y1="339.938" y2="400.451" gradientUnits="userSpaceOnUse"><stop offset="0" style="stop-color:#22adf6"/><stop offset=".37" style="stop-color:#4c8cf2;stop-opacity:.5829"/><stop offset=".888" style="stop-color:#8c58eb;stop-opacity:0"/></linearGradient><path d="M202.6,389.4c-0.2,0-0.4-0.2-0.4-0.4v-3.3c0-0.2,0.2-0.4,0.4-0.4s0.4,0.2,0.4,0.4v3.3 C203,389.2,202.8,389.4,202.6,389.4z M202.6,382.8c-0.2,0-0.4-0.2-0.4-0.4v-3.3c0-0.2,0.2-0.4,0.4-0.4s0.4,0.2,0.4,0.4v3.3 C203,382.6,202.8,382.8,202.6,382.8z M202.6,376.3c-0.2,0-0.4-0.2-0.4-0.4v-3.3c0-0.2,0.2-0.4,0.4-0.4s0.4,0.2,0.4,0.4v3.3 C203,376.1,202.8,376.3,202.6,376.3z M202.6,369.7c-0.2,0-0.4-0.2-0.4-0.4V366c0-0.2,0.2-0.4,0.4-0.4s0.4,0.2,0.4,0.4v3.3 C203,369.5,202.8,369.7,202.6,369.7z M202.6,363.2c-0.2,0-0.4-0.2-0.4-0.4v-3.3c0-0.2,0.2-0.4,0.4-0.4s0.4,0.2,0.4,0.4v3.3 C203,363,202.8,363.2,202.6,363.2z M202.6,356.6c-0.2,0-0.4-0.2-0.4-0.4v-3.3c0-0.2,0.2-0.4,0.4-0.4s0.4,0.2,0.4,0.4v3.3 C203,356.4,202.8,356.6,202.6,356.6z M202.6,350.1c-0.2,0-0.4-0.2-0.4-0.4v-3.3c0-0.2,0.2-0.4,0.4-0.4s0.4,0.2,0.4,0.4v3.3 C203,349.9,202.8,350.1,202.6,350.1z" class="st100"/><linearGradient id="SVGID_90_" x1="202.61" x2="202.61" y1="339.938" y2="400.451" gradientUnits="userSpaceOnUse"><stop offset="0" style="stop-color:#22adf6"/><stop offset=".37" style="stop-color:#4c8cf2;stop-opacity:.5829"/><stop offset=".888" style="stop-color:#8c58eb;stop-opacity:0"/></linearGradient><path d="M202.6,394.3c-0.2,0-0.4-0.2-0.4-0.4v-1.6c0-0.2,0.2-0.4,0.4-0.4s0.4,0.2,0.4,0.4v1.6 C203,394.1,202.8,394.3,202.6,394.3z" class="st101"/></g><g><linearGradient id="SVGID_91_" x1="246.63" x2="246.63" y1="364.782" y2="425.295" gradientUnits="userSpaceOnUse"><stop offset="0" style="stop-color:#22adf6"/><stop offset=".37" style="stop-color:#4c8cf2;stop-opacity:.5829"/><stop offset=".888" style="stop-color:#8c58eb;stop-opacity:0"/></linearGradient><path d="M246.6,368.4c-0.2,0-0.4-0.2-0.4-0.4v-1.6c0-0.2,0.2-0.4,0.4-0.4s0.4,0.2,0.4,0.4v1.6 C247,368.2,246.9,368.4,246.6,368.4z" class="st102"/><linearGradient id="SVGID_92_" x1="246.63" x2="246.63" y1="367.515" y2="400.626" gradientUnits="userSpaceOnUse"><stop offset="0" style="stop-color:#22adf6"/><stop offset=".37" style="stop-color:#4c8cf2;stop-opacity:.5829"/><stop offset=".888" style="stop-color:#8c58eb;stop-opacity:0"/></linearGradient><path d="M246.6,394.6c-0.2,0-0.4-0.2-0.4-0.4v-3.3c0-0.2,0.2-0.4,0.4-0.4s0.4,0.2,0.4,0.4v3.3 C247,394.4,246.9,394.6,246.6,394.6z M246.6,388c-0.2,0-0.4-0.2-0.4-0.4v-3.3c0-0.2,0.2-0.4,0.4-0.4s0.4,0.2,0.4,0.4v3.3 C247,387.8,246.9,388,246.6,388z M246.6,381.5c-0.2,0-0.4-0.2-0.4-0.4v-3.3c0-0.2,0.2-0.4,0.4-0.4s0.4,0.2,0.4,0.4v3.3 C247,381.3,246.9,381.5,246.6,381.5z M246.6,374.9c-0.2,0-0.4-0.2-0.4-0.4v-3.3c0-0.2,0.2-0.4,0.4-0.4s0.4,0.2,0.4,0.4v3.3 C247,374.7,246.9,374.9,246.6,374.9z" class="st103"/></g><g><linearGradient id="SVGID_93_" x1="330.992" x2="330.992" y1="400.145" y2="424.122" gradientUnits="userSpaceOnUse"><stop offset="0" style="stop-color:#22adf6"/><stop offset=".37" style="stop-color:#4c8cf2;stop-opacity:.5829"/><stop offset=".888" style="stop-color:#8c58eb;stop-opacity:0"/></linearGradient><path d="M331,419.7c-0.2,0-0.4-0.2-0.4-0.4V416c0-0.2,0.2-0.4,0.4-0.4s0.4,0.2,0.4,0.4v3.3 C331.4,419.6,331.2,419.7,331,419.7z M331,413.2c-0.2,0-0.4-0.2-0.4-0.4v-3.3c0-0.2,0.2-0.4,0.4-0.4s0.4,0.2,0.4,0.4v3.3 C331.4,413,331.2,413.2,331,413.2z M331,406.6c-0.2,0-0.4-0.2-0.4-0.4v-3.3c0-0.2,0.2-0.4,0.4-0.4s0.4,0.2,0.4,0.4v3.3 C331.4,406.4,331.2,406.6,331,406.6z" class="st104"/></g><g class="st80"><linearGradient id="SVGID_94_" x1="89.493" x2="97.638" y1="377.506" y2="377.506" gradientTransform="matrix(-1 0 0 1 355.3781 0)" gradientUnits="userSpaceOnUse"><stop offset="0" style="stop-color:#8c58eb;stop-opacity:0"/><stop offset=".583" style="stop-color:#4c8cf2;stop-opacity:.5829"/><stop offset="1" style="stop-color:#22adf6"/></linearGradient><path d="M257.7,375.7l0-0.2c0-0.7,0.8-1.2,1.4-0.8l6.1,3.5c0.4,0.2,0.7,0.7,0.7,1.2l0,0c0,0.7-0.8,1.2-1.4,0.8 l-6.2-3.6C257.9,376.5,257.7,376.1,257.7,375.7z" class="st105"/><linearGradient id="SVGID_95_" x1="83.471" x2="97.638" y1="383.487" y2="383.487" gradientTransform="matrix(-1 0 0 1 355.3781 0)" gradientUnits="userSpaceOnUse"><stop offset="0" style="stop-color:#8c58eb;stop-opacity:0"/><stop offset=".583" style="stop-color:#4c8cf2;stop-opacity:.5829"/><stop offset="1" style="stop-color:#22adf6"/></linearGradient><path d="M257.7,380l0-0.2c0-0.7,0.8-1.2,1.4-0.8l12.1,7c0.4,0.2,0.7,0.7,0.7,1.2l0,0c0,0.7-0.8,1.2-1.4,0.8 l-12.2-7C257.9,380.7,257.7,380.4,257.7,380z" class="st106"/><linearGradient id="SVGID_96_" x1="88.58" x2="97.638" y1="385.984" y2="385.984" gradientTransform="matrix(-1 0 0 1 355.3781 0)" gradientUnits="userSpaceOnUse"><stop offset="0" style="stop-color:#8c58eb;stop-opacity:0"/><stop offset=".583" style="stop-color:#4c8cf2;stop-opacity:.5829"/><stop offset="1" style="stop-color:#22adf6"/></linearGradient><path d="M257.7,383.9l0-0.2c0-0.7,0.8-1.2,1.4-0.8l7,4c0.4,0.2,0.7,0.7,0.7,1.2l0,0c0,0.7-0.8,1.2-1.4,0.8 l-7.1-4.1C257.9,384.7,257.7,384.3,257.7,383.9z" class="st107"/></g><g class="st108"><linearGradient id="SVGID_97_" x1="167.756" x2="167.756" y1="298.35" y2="358.863" gradientUnits="userSpaceOnUse"><stop offset="0" style="stop-color:#22adf6"/><stop offset=".37" style="stop-color:#4c8cf2;stop-opacity:.5829"/><stop offset=".888" style="stop-color:#8c58eb;stop-opacity:0"/></linearGradient><path d="M167.8,301.9c-0.2,0-0.4-0.2-0.4-0.4v-1.6c0-0.2,0.2-0.4,0.4-0.4s0.4,0.2,0.4,0.4v1.6 C168.2,301.7,168,301.9,167.8,301.9z" class="st109"/><linearGradient id="SVGID_98_" x1="167.756" x2="167.756" y1="298.35" y2="358.863" gradientUnits="userSpaceOnUse"><stop offset="0" style="stop-color:#22adf6"/><stop offset=".37" style="stop-color:#4c8cf2;stop-opacity:.5829"/><stop offset=".888" style="stop-color:#8c58eb;stop-opacity:0"/></linearGradient><path d="M167.8,347.8c-0.2,0-0.4-0.2-0.4-0.4v-3.3c0-0.2,0.2-0.4,0.4-0.4s0.4,0.2,0.4,0.4v3.3 C168.2,347.6,168,347.8,167.8,347.8z M167.8,341.2c-0.2,0-0.4-0.2-0.4-0.4v-3.3c0-0.2,0.2-0.4,0.4-0.4s0.4,0.2,0.4,0.4v3.3 C168.2,341.1,168,341.2,167.8,341.2z M167.8,334.7c-0.2,0-0.4-0.2-0.4-0.4V331c0-0.2,0.2-0.4,0.4-0.4s0.4,0.2,0.4,0.4v3.3 C168.2,334.5,168,334.7,167.8,334.7z M167.8,328.1c-0.2,0-0.4-0.2-0.4-0.4v-3.3c0-0.2,0.2-0.4,0.4-0.4s0.4,0.2,0.4,0.4v3.3 C168.2,328,168,328.1,167.8,328.1z M167.8,321.6c-0.2,0-0.4-0.2-0.4-0.4v-3.3c0-0.2,0.2-0.4,0.4-0.4s0.4,0.2,0.4,0.4v3.3 C168.2,321.4,168,321.6,167.8,321.6z M167.8,315c-0.2,0-0.4-0.2-0.4-0.4v-3.3c0-0.2,0.2-0.4,0.4-0.4s0.4,0.2,0.4,0.4v3.3 C168.2,314.8,168,315,167.8,315z M167.8,308.5c-0.2,0-0.4-0.2-0.4-0.4v-3.3c0-0.2,0.2-0.4,0.4-0.4s0.4,0.2,0.4,0.4v3.3 C168.2,308.3,168,308.5,167.8,308.5z" class="st110"/><linearGradient id="SVGID_99_" x1="167.756" x2="167.756" y1="298.35" y2="358.863" gradientUnits="userSpaceOnUse"><stop offset="0" style="stop-color:#22adf6"/><stop offset=".37" style="stop-color:#4c8cf2;stop-opacity:.5829"/><stop offset=".888" style="stop-color:#8c58eb;stop-opacity:0"/></linearGradient><path d="M167.8,352.7c-0.2,0-0.4-0.2-0.4-0.4v-1.6c0-0.2,0.2-0.4,0.4-0.4s0.4,0.2,0.4,0.4v1.6 C168.2,352.5,168,352.7,167.8,352.7z" class="st111"/></g></g><g><g><polygon points="741.1 342.1 741.1 535 701.7 535.2 658 535.2 658.2 390.2 658.2 389.6 658.4 389.4 740.8 342.2" class="st29"/><linearGradient id="SVGID_100_" x1="611.344" x2="620.076" y1="329.995" y2="524.286" gradientUnits="userSpaceOnUse"><stop offset="0" style="stop-color:#383846"/><stop offset=".094" style="stop-color:#31313e"/><stop offset=".427" style="stop-color:#1e1e26"/><stop offset=".737" style="stop-color:#131218"/><stop offset="1" style="stop-color:#0f0e13"/></linearGradient><polygon points="658.5 389.5 658.5 535.2 576.1 535.2 576.2 344.1 576.2 342.3 658.4 389.4" class="st112"/><linearGradient id="SVGID_101_" x1="540.996" x2="594.342" y1="330.106" y2="422.573" gradientUnits="userSpaceOnUse"><stop offset="0" style="stop-color:#9550ea;stop-opacity:.3"/><stop offset="1" style="stop-color:#9550ea;stop-opacity:0"/></linearGradient><polygon points="658.5 389.5 658.5 535.2 576.1 535.2 576.2 344.1 576.2 342.3 658.4 389.4" class="st113"/><linearGradient id="SVGID_102_" x1="575.565" x2="768.902" y1="341.527" y2="341.527" gradientUnits="userSpaceOnUse"><stop offset="0" style="stop-color:#363644"/><stop offset="1" style="stop-color:#0f0e13"/></linearGradient><path d="M578.2,336.9l71.7-42.1c4.5-2.6,10-2.6,14.5-0.1l73.8,42.7c3.6,2.1,3.6,7.3,0,9.4l-72.4,41.6 c-4.4,2.5-9.9,2.5-14.3,0l-73.1-42.1C574.7,344.2,574.7,339,578.2,336.9z" class="st114"/></g><g class="st5"><linearGradient id="SVGID_103_" x1="710.975" x2="770.051" y1="361.428" y2="463.749" gradientUnits="userSpaceOnUse"><stop offset="0" style="stop-color:#383846"/><stop offset=".106" style="stop-color:#323340;stop-opacity:.9045"/><stop offset=".667" style="stop-color:#181b27;stop-opacity:.3995"/><stop offset="1" style="stop-color:#0e121d;stop-opacity:.1"/></linearGradient><rect width="1" height="135.9" x="740" y="344.7" class="st115"/></g><g class="st5"><linearGradient id="SVGID_104_" x1="628.844" x2="687.92" y1="406.653" y2="508.975" gradientUnits="userSpaceOnUse"><stop offset="0" style="stop-color:#383846"/><stop offset=".106" style="stop-color:#323340;stop-opacity:.9045"/><stop offset=".667" style="stop-color:#181b27;stop-opacity:.3995"/><stop offset="1" style="stop-color:#0e121d;stop-opacity:.1"/></linearGradient><rect width="1" height="135.9" x="657.9" y="389.9" class="st116"/></g><g class="st5"><linearGradient id="SVGID_105_" x1="546.352" x2="605.427" y1="360.704" y2="463.026" gradientUnits="userSpaceOnUse"><stop offset="0" style="stop-color:#383846"/><stop offset=".106" style="stop-color:#323340;stop-opacity:.9045"/><stop offset=".667" style="stop-color:#181b27;stop-opacity:.3995"/><stop offset="1" style="stop-color:#0e121d;stop-opacity:.1"/></linearGradient><rect width="1" height="135.9" x="575.4" y="343.9" class="st117"/></g><g class="st5"><linearGradient id="SVGID_106_" x1="635.502" x2="680.572" y1="302.518" y2="380.58" gradientUnits="userSpaceOnUse"><stop offset="0" style="stop-color:#383846"/><stop offset="1" style="stop-color:#383846"/></linearGradient><path d="M658.5,390.7c-2.6,0-5.1-0.7-7.4-2L578,346.7c-1.8-1.1-2.9-3-3-5.1s1.1-4,2.9-5.1l71.7-42.1 c4.6-2.7,10.4-2.7,15-0.1l73.8,42.7c1.8,1.1,2.9,3,2.9,5.1c0,2.1-1.1,4-3,5.1l-72.4,41.6C663.7,390.1,661.1,390.7,658.5,390.7z M578.5,337.4c-1.5,0.9-2.4,2.5-2.4,4.3s0.9,3.3,2.5,4.2l73.1,42.1c4.3,2.5,9.6,2.5,13.8,0l72.4-41.6c1.5-0.9,2.5-2.5,2.5-4.2 s-0.9-3.4-2.4-4.3l-73.8-42.7c-4.3-2.5-9.7-2.5-14,0L578.5,337.4z" class="st118"/></g></g><g><g><polygon points="27.5 265.2 27.5 535.2 83.2 535.2 83 297" class="st29"/><linearGradient id="SVGID_107_" x1="79.417" x2="25.146" y1="400.053" y2="235.791" gradientTransform="matrix(-1 0 0 1 176.9904 0)" gradientUnits="userSpaceOnUse"><stop offset="0" style="stop-color:#0f0e13"/><stop offset="1" style="stop-color:#262630"/></linearGradient><polygon points="138 265.3 138 425.3 82.8 458.5 82.8 296.9" class="st119"/><linearGradient id="SVGID_108_" x1="38.606" x2="149.308" y1="264.8" y2="264.8" gradientTransform="matrix(-1 0 0 1 176.9904 0)" gradientUnits="userSpaceOnUse"><stop offset="0" style="stop-color:#1c1c24"/><stop offset="1" style="stop-color:#0f0e13"/></linearGradient><path d="M136.6,261.7l-48-28.2c-3-1.8-6.7-1.8-9.7,0l-49.4,28.6c-2.4,1.4-2.4,4.9,0,6.3L78,296.2 c3,1.7,6.6,1.7,9.6,0l49-28.2C139,266.6,139,263.1,136.6,261.7z" class="st120"/></g><g><g class="st5"><linearGradient id="SVGID_109_" x1="1358.58" x2="1388.93" y1="238.531" y2="291.099" gradientTransform="matrix(1 0 0 1 -1290.9347 0)" gradientUnits="userSpaceOnUse"><stop offset="0" style="stop-color:#0e121d;stop-opacity:.1"/><stop offset=".333" style="stop-color:#181b27;stop-opacity:.3995"/><stop offset=".894" style="stop-color:#323340;stop-opacity:.9045"/><stop offset="1" style="stop-color:#383846"/></linearGradient><path d="M83.2,297.9c-1.7,0-3.5-0.4-5.1-1.3l-49-28.2c-1.3-0.7-2.1-2.1-2.1-3.5c0-1.5,0.8-2.8,2-3.6l48-28.2 c3.1-1.8,7.1-1.9,10.2,0l49.4,28.6c1.3,0.7,2.1,2.1,2.1,3.6c0,1.5-0.8,2.8-2.1,3.6l-48.5,27.8C86.6,297.5,84.9,297.9,83.2,297.9 z M29.6,262.1c-1,0.6-1.5,1.6-1.5,2.7c0,1.1,0.6,2.1,1.6,2.7l49,28.2c2.8,1.6,6.3,1.6,9.1,0l48.5-27.8c1-0.6,1.6-1.6,1.6-2.7 s-0.6-2.1-1.6-2.7l-49.4-28.6c-2.8-1.6-6.4-1.6-9.2,0L29.6,262.1z" class="st121"/></g><g class="st5"><linearGradient id="SVGID_110_" x1="132.216" x2="144.235" y1="270.004" y2="290.821" gradientUnits="userSpaceOnUse"><stop offset="0" style="stop-color:#383846"/><stop offset=".297" style="stop-color:#333441;stop-opacity:.7331"/><stop offset=".631" style="stop-color:#262734;stop-opacity:.432"/><stop offset=".983" style="stop-color:#0f131e;stop-opacity:.1154"/><stop offset="1" style="stop-color:#0e121d;stop-opacity:.1"/></linearGradient><rect width="1" height="27.2" x="137.7" y="266.8" class="st122"/></g><g class="st5"><linearGradient id="SVGID_111_" x1="76.86" x2="90.084" y1="300.915" y2="323.819" gradientUnits="userSpaceOnUse"><stop offset="0" style="stop-color:#383846"/><stop offset=".106" style="stop-color:#323340;stop-opacity:.9045"/><stop offset=".667" style="stop-color:#181b27;stop-opacity:.3995"/><stop offset="1" style="stop-color:#0e121d;stop-opacity:.1"/></linearGradient><rect width="1" height="30" x="83" y="297.4" class="st123"/></g></g></g><g><g><polygon points="145 535.2 62.4 535.2 62.4 369.8 62.7 369.9 63.4 370.4 144.4 416.8 144.6 416.9 144.8 417 144.8 417.7" class="st29"/><linearGradient id="SVGID_112_" x1="243.994" x2="186.416" y1="289.438" y2="473.23" gradientUnits="userSpaceOnUse"><stop offset="0" style="stop-color:#383846"/><stop offset=".245" style="stop-color:#2b2b36"/><stop offset=".717" style="stop-color:#17161c"/><stop offset="1" style="stop-color:#0f0e13"/></linearGradient><polygon points="226.5 535.2 144.5 535.2 144.5 416.9 144.6 416.9 144.8 416.8 226.3 370.1 226.3 370.1 226.4 370.1 226.4 371.8" class="st124"/><linearGradient id="SVGID_113_" x1="150.111" x2="186.855" y1="391.32" y2="455.01" gradientUnits="userSpaceOnUse"><stop offset="0" style="stop-color:#24acf6;stop-opacity:.3"/><stop offset="1" style="stop-color:#25abf6;stop-opacity:0"/></linearGradient><polygon points="226.5 535.2 226.4 371.8 226.4 370.1 226.3 370.1 226.3 370.1 144.8 416.8 144.6 416.9 144.5 416.9 144.5 417.7 144.5 535.2 145 535.2 226.5 535.2" class="st125"/><linearGradient id="SVGID_114_" x1="232.737" x2="64.404" y1="340.059" y2="396.17" gradientUnits="userSpaceOnUse"><stop offset="0" style="stop-color:#363644"/><stop offset="1" style="stop-color:#0f0e13"/></linearGradient><path d="M224.4,364.7l-71.3-41.9c-4.4-2.6-9.9-2.6-14.4-0.1l-73.4,42.5c-3.6,2.1-3.6,7.2,0,9.3l72,41.3 c4.4,2.5,9.8,2.5,14.3,0l72.7-41.8C227.9,371.9,227.9,366.8,224.4,364.7z" class="st126"/><g class="st5"><linearGradient id="SVGID_115_" x1="122.791" x2="166.869" y1="331.338" y2="407.684" gradientUnits="userSpaceOnUse"><stop offset="0" style="stop-color:#383846;stop-opacity:0"/><stop offset="1" style="stop-color:#383846"/></linearGradient><path d="M144.5,418.2c-2.5,0-5.1-0.7-7.4-2l-72-41.3c-1.8-1.1-2.9-3-2.9-5.1c0-2.1,1.1-4,2.9-5.1l73.4-42.5 c4.6-2.7,10.3-2.6,14.9,0.1l71.3,41.9c1.8,1.1,2.9,3,2.9,5.1s-1.1,4-2.9,5l-72.7,41.8C149.6,417.5,147.1,418.2,144.5,418.2z M145.9,321.3c-2.4,0-4.8,0.6-6.9,1.9l-73.4,42.5c-1.5,0.9-2.4,2.5-2.4,4.2s0.9,3.3,2.5,4.2l72,41.3c4.2,2.4,9.5,2.4,13.8,0 l72.7-41.8c1.5-0.9,2.4-2.5,2.4-4.2c0-1.8-0.9-3.3-2.4-4.2l-71.3-41.9C150.7,321.9,148.3,321.3,145.9,321.3z" class="st127"/></g></g><g class="st5"><linearGradient id="SVGID_116_" x1="34.329" x2="91.024" y1="386.639" y2="484.838" gradientUnits="userSpaceOnUse"><stop offset="0" style="stop-color:#383846"/><stop offset=".106" style="stop-color:#323340;stop-opacity:.9045"/><stop offset=".667" style="stop-color:#181b27;stop-opacity:.3995"/><stop offset="1" style="stop-color:#0e121d;stop-opacity:.1"/></linearGradient><rect width="1" height="130.4" x="62.2" y="370.6" class="st128"/></g><g class="st5"><linearGradient id="SVGID_117_" x1="118.985" x2="170.07" y1="432.272" y2="520.754" gradientUnits="userSpaceOnUse"><stop offset="0" style="stop-color:#383846"/><stop offset=".106" style="stop-color:#323340;stop-opacity:.9045"/><stop offset=".667" style="stop-color:#181b27;stop-opacity:.3995"/><stop offset="1" style="stop-color:#0e121d;stop-opacity:.1"/></linearGradient><rect width="1" height="117.4" x="144" y="417.8" class="st129"/></g><g class="st5"><linearGradient id="SVGID_118_" x1="198.466" x2="254.165" y1="386.022" y2="482.495" gradientUnits="userSpaceOnUse"><stop offset="0" style="stop-color:#383846"/><stop offset=".106" style="stop-color:#323340;stop-opacity:.9045"/><stop offset=".667" style="stop-color:#181b27;stop-opacity:.3995"/><stop offset="1" style="stop-color:#0e121d;stop-opacity:.1"/></linearGradient><rect width="1.1" height="128" x="225.8" y="370.3" class="st130"/></g></g><g><radialGradient id="SVGID_119_" cx="442.755" cy="343.213" r="37.152" gradientTransform="matrix(-0.6081 1.066678e-02 3.905810e-03 0.6021 558.7045 131.842)" gradientUnits="userSpaceOnUse"><stop offset="0" style="stop-color:#22adf6"/><stop offset="1" style="stop-color:#22adf6;stop-opacity:0"/></radialGradient><path d="M271.3,324.6c10.8-10.3,28.3-10.3,39.1,0c10.8,10.3,10.7,27-0.1,37.2c-10.8,10.3-28.3,10.3-39.1,0 C260.4,351.6,260.5,334.9,271.3,324.6L271.3,324.6z" class="st131"/><radialGradient id="SVGID_120_" cx="442.755" cy="343.213" r="11.682" gradientTransform="matrix(-0.6081 0 0 0.5722 560.0603 146.8126)" gradientUnits="userSpaceOnUse"><stop offset="0" style="stop-color:#fff"/><stop offset="1" style="stop-color:#fff;stop-opacity:0"/></radialGradient><path d="M285.6,338.2c2.9-2.8,7.6-2.8,10.5,0c2.9,2.8,2.9,7.2,0,10c-2.9,2.8-7.6,2.8-10.5,0 C282.7,345.5,282.7,341,285.6,338.2L285.6,338.2z" class="st132"/></g><path d="M226.5,535.2L226.5,535.2L226.5,535.2z" class="st133"/></g></svg>